  0
SECTION
  2
HEADER
  9
$ACADVER
  1
AC1018
  9
$ACADMAINTVER
 70
     0
  9
$DWGCODEPAGE
  3
ANSI_1252
  9
$INSBASE
 10
0.0
 20
0.0
 30
0.0
  9
$EXTMIN
 10
0.0
 20
-20.0
 30
-0.0000000000000004
  9
$EXTMAX
 10
80.00000000000006
 20
0.000000000000002
 30
20.00000000000001
  9
$LIMMIN
 10
0.0
 20
0.0
  9
$LIMMAX
 10
297.0
 20
210.0
  9
$ORTHOMODE
 70
     0
  9
$REGENMODE
 70
     1
  9
$FILLMODE
 70
     1
  9
$QTEXTMODE
 70
     0
  9
$MIRRTEXT
 70
     0
  9
$LTSCALE
 40
1.0
  9
$ATTMODE
 70
     1
  9
$TEXTSIZE
 40
5.0
  9
$TRACEWID
 40
1.0
  9
$TEXTSTYLE
  7
Standard
  9
$CLAYER
  8
0
  9
$CELTYPE
  6
ByLayer
  9
$CECOLOR
 62
     7
  9
$CELTSCALE
 40
1.0
  9
$DISPSILH
 70
     0
  9
$DIMSCALE
 40
1.0
  9
$DIMASZ
 40
3.0
  9
$DIMEXO
 40
1.0
  9
$DIMDLI
 40
7.5
  9
$DIMRND
 40
0.2
  9
$DIMDLE
 40
0.0
  9
$DIMEXE
 40
2.0
  9
$DIMTP
 40
0.0
  9
$DIMTM
 40
0.0
  9
$DIMTXT
 40
3.0
  9
$DIMCEN
 40
0.0
  9
$DIMTSZ
 40
0.0
  9
$DIMTOL
 70
     0
  9
$DIMLIM
 70
     0
  9
$DIMTIH
 70
     1
  9
$DIMTOH
 70
     0
  9
$DIMSE1
 70
     0
  9
$DIMSE2
 70
     0
  9
$DIMTAD
 70
     1
  9
$DIMZIN
 70
     1
  9
$DIMBLK
  1

  9
$DIMASO
 70
     1
  9
$DIMSHO
 70
     1
  9
$DIMPOST
  1
 mm
  9
$DIMAPOST
  1
 mm
  9
$DIMALT
 70
     0
  9
$DIMALTD
 70
     2
  9
$DIMALTF
 40
1.0
  9
$DIMLFAC
 40
1.0
  9
$DIMTOFL
 70
     1
  9
$DIMTVP
 40
0.0
  9
$DIMTIX
 70
     0
  9
$DIMSOXD
 70
     0
  9
$DIMSAH
 70
     0
  9
$DIMBLK1
  1

  9
$DIMBLK2
  1

  9
$DIMSTYLE
  2
Standard
  9
$DIMCLRD
 70
     7
  9
$DIMCLRE
 70
     7
  9
$DIMCLRT
 70
     7
  9
$DIMTFAC
 40
1.0
  9
$DIMGAP
 40
2.0
  9
$DIMJUST
 70
     0
  9
$DIMSD1
 70
     0
  9
$DIMSD2
 70
     0
  9
$DIMTOLJ
 70
     1
  9
$DIMTZIN
 70
     0
  9
$DIMALTZ
 70
     0
  9
$DIMALTTZ
 70
     0
  9
$DIMUPT
 70
     0
  9
$DIMDEC
 70
     2
  9
$DIMTDEC
 70
     3
  9
$DIMALTU
 70
     2
  9
$DIMALTTD
 70
     2
  9
$DIMTXSTY
  7
Standard
  9
$DIMAUNIT
 70
     0
  9
$DIMADEC
 70
     0
  9
$DIMALTRND
 40
0.01
  9
$DIMAZIN
 70
     0
  9
$DIMDSEP
 70
     0
  9
$DIMATFIT
 70
     3
  9
$DIMFRAC
 70
     2
  9
$DIMLDRBLK
  1

  9
$DIMLUNIT
 70
     2
  9
$DIMLWD
 70
    -2
  9
$DIMLWE
 70
    -2
  9
$DIMTMOVE
 70
     0
  9
$LUNITS
 70
     2
  9
$LUPREC
 70
     2
  9
$SKETCHINC
 40
1.0
  9
$FILLETRAD
 40
3.0
  9
$AUNITS
 70
     0
  9
$AUPREC
 70
     2
  9
$MENU
  1
.
  9
$ELEVATION
 40
0.0
  9
$PELEVATION
 40
0.0
  9
$THICKNESS
 40
0.0
  9
$LIMCHECK
 70
     0
  9
$CHAMFERA
 40
0.5
  9
$CHAMFERB
 40
0.5
  9
$CHAMFERC
 40
1.0
  9
$CHAMFERD
 40
0.0
  9
$SKPOLY
 70
     0
  9
$TDCREATE
 40
2456361.659341921
  9
$TDUCREATE
 40
2456361.617675255
  9
$TDUPDATE
 40
2456361.659341933
  9
$TDUUPDATE
 40
2456361.617675266
  9
$TDINDWG
 40
0.0
  9
$TDUSRTIMER
 40
0.0
  9
$USRTIMER
 70
     1
  9
$ANGBASE
 50
0.0
  9
$ANGDIR
 70
     0
  9
$PDMODE
 70
     0
  9
$PDSIZE
 40
0.0
  9
$PLINEWID
 40
0.0
  9
$SPLFRAME
 70
     0
  9
$SPLINETYPE
 70
     5
  9
$SPLINESEGS
 70
    20
  9
$HANDSEED
  5
DB
  9
$SURFTAB1
 70
     6
  9
$SURFTAB2
 70
     6
  9
$SURFTYPE
 70
     6
  9
$SURFU
 70
     6
  9
$SURFV
 70
     6
  9
$UCSBASE
  2

  9
$UCSNAME
  2

  9
$UCSORG
 10
0.0
 20
0.0
 30
0.0
  9
$UCSXDIR
 10
1.0
 20
0.0
 30
0.0
  9
$UCSYDIR
 10
0.0
 20
1.0
 30
0.0
  9
$UCSORTHOREF
  2

  9
$UCSORTHOVIEW
 70
     0
  9
$UCSORGTOP
 10
0.0
 20
0.0
 30
0.0
  9
$UCSORGBOTTOM
 10
0.0
 20
0.0
 30
0.0
  9
$UCSORGLEFT
 10
0.0
 20
0.0
 30
0.0
  9
$UCSORGRIGHT
 10
0.0
 20
0.0
 30
0.0
  9
$UCSORGFRONT
 10
0.0
 20
0.0
 30
0.0
  9
$UCSORGBACK
 10
0.0
 20
0.0
 30
0.0
  9
$PUCSBASE
  2

  9
$PUCSNAME
  2

  9
$PUCSORG
 10
0.0
 20
0.0
 30
0.0
  9
$PUCSXDIR
 10
1.0
 20
0.0
 30
0.0
  9
$PUCSYDIR
 10
0.0
 20
1.0
 30
0.0
  9
$PUCSORTHOREF
  2

  9
$PUCSORTHOVIEW
 70
     0
  9
$PUCSORGTOP
 10
0.0
 20
0.0
 30
0.0
  9
$PUCSORGBOTTOM
 10
0.0
 20
0.0
 30
0.0
  9
$PUCSORGLEFT
 10
0.0
 20
0.0
 30
0.0
  9
$PUCSORGRIGHT
 10
0.0
 20
0.0
 30
0.0
  9
$PUCSORGFRONT
 10
0.0
 20
0.0
 30
0.0
  9
$PUCSORGBACK
 10
0.0
 20
0.0
 30
0.0
  9
$USERI1
 70
     0
  9
$USERI2
 70
     0
  9
$USERI3
 70
     0
  9
$USERI4
 70
     0
  9
$USERI5
 70
     0
  9
$USERR1
 40
0.0
  9
$USERR2
 40
0.0
  9
$USERR3
 40
0.0
  9
$USERR4
 40
0.0
  9
$USERR5
 40
0.0
  9
$WORLDVIEW
 70
     1
  9
$SHADEDGE
 70
     3
  9
$SHADEDIF
 70
    70
  9
$TILEMODE
 70
     1
  9
$MAXACTVP
 70
    64
  9
$PINSBASE
 10
0.0
 20
0.0
 30
0.0
  9
$PLIMCHECK
 70
     0
  9
$PEXTMIN
 10
0.0
 20
0.0
 30
0.0
  9
$PEXTMAX
 10
0.0
 20
0.0
 30
0.0
  9
$PLIMMIN
 10
0.0
 20
0.0
  9
$PLIMMAX
 10
0.0
 20
0.0
  9
$UNITMODE
 70
     0
  9
$VISRETAIN
 70
     1
  9
$PLINEGEN
 70
     0
  9
$PSLTSCALE
 70
     1
  9
$TREEDEPTH
 70
  3020
  9
$CMLSTYLE
  2
Standard
  9
$CMLJUST
 70
     0
  9
$CMLSCALE
 40
1.0
  9
$PROXYGRAPHICS
 70
     1
  9
$MEASUREMENT
 70
     1
  9
$CELWEIGHT
370
    -1
  9
$ENDCAPS
280
     0
  9
$JOINSTYLE
280
     0
  9
$LWDISPLAY
290
     0
  9
$INSUNITS
 70
     1
  9
$HYPERLINKBASE
  1

  9
$STYLESHEET
  1

  9
$XEDIT
290
     1
  9
$CEPSNTYPE
380
     0
  9
$PSTYLEMODE
290
     1
  9
$FINGERPRINTGUID
  2
{34BACB06-E129-495A-80BE-84392399A69C}
  9
$VERSIONGUID
  2
{FAEB1C32-E019-11D5-929B-00C0DF256EC4}
  9
$EXTNAMES
290
     1
  9
$PSVPSCALE
 40
0.0
  9
$OLESTARTUP
290
     0
  9
$SORTENTS
280
   127
  9
$INDEXCTL
280
     0
  9
$HIDETEXT
280
     1
  9
$XCLIPFRAME
290
     0
  9
$HALOGAP
280
     0
  9
$OBSCOLOR
 70
   257
  9
$OBSLTYPE
280
     0
  9
$INTERSECTIONDISPLAY
280
     0
  9
$INTERSECTIONCOLOR
 70
   257
  9
$DIMASSOC
280
     2
  9
$PROJECTNAME
  1

  0
ENDSEC
  0
SECTION
  2
CLASSES
  0
CLASS
  1
ACDBDICTIONARYWDFLT
  2
AcDbDictionaryWithDefault
  3
ObjectDBX Classes
 90
        0
 91
        4
280
     0
281
     0
  0
CLASS
  1
VISUALSTYLE
  2
AcDbVisualStyle
  3
ObjectDBX Classes
 90
     4095
 91
        4
280
     0
281
     0
  0
CLASS
  1
TABLESTYLE
  2
AcDbTableStyle
  3
ObjectDBX Classes
 90
     4095
 91
        4
280
     0
281
     0
  0
CLASS
  1
LIGHT
  2
AcDbLight
  3
SCENEOE
 90
     1025
 91
        4
280
     0
281
     1
  0
CLASS
  1
SCALE
  2
AcDbScale
  3
ObjectDBX Classes
 90
     1153
 91
        4
280
     0
281
     0
  0
CLASS
  1
DICTIONARYVAR
  2
AcDbDictionaryVar
  3
ObjectDBX Classes
 90
        0
 91
        4
280
     0
281
     0
  0
CLASS
  1
CELLSTYLEMAP
  2
AcDbCellStyleMap
  3
ObjectDBX Classes
 90
     1152
 91
        4
280
     0
281
     0
  0
ENDSEC
  0
SECTION
  2
TABLES
  0
TABLE
  2
VPORT
  5
8
330
0
100
AcDbSymbolTable
 70
     1
  0
VPORT
  5
29
330
8
100
AcDbSymbolTableRecord
100
AcDbViewportTableRecord
  2
*Active
 70
     0
 10
0.0
 20
0.0
 11
1.0
 21
1.0
 12
0.0
 22
0.0
 13
0.0
 23
0.0
 14
5.0
 24
5.0
 15
5.0
 25
5.0
 16
-1.0
 26
-1.0
 36
1.0
 17
33.33333333333337
 27
-16.66666666666668
 37
16.66666666666669
 40
58.29785587823972
 41
1.716117216117216
 42
50.0
 43
0.0
 44
0.0
 50
0.0
 51
0.0
 71
     0
 72
   100
 73
     1
 74
     3
 75
     0
 76
     0
 77
     0
 78
     0
281
     0
 65
     1
110
0.0
120
0.0
130
0.0
111
1.0
121
0.0
131
0.0
112
0.0
122
1.0
132
0.0
 79
     0
146
0.0
  0
ENDTAB
  0
TABLE
  2
LTYPE
  5
5
330
0
100
AcDbSymbolTable
 70
    12
  0
LTYPE
  5
14
330
5
100
AcDbSymbolTableRecord
100
AcDbLinetypeTableRecord
  2
ByBlock
 70
     0
  3

 72
    65
 73
     0
 40
0.0
  0
LTYPE
  5
15
330
5
100
AcDbSymbolTableRecord
100
AcDbLinetypeTableRecord
  2
ByLayer
 70
     0
  3

 72
    65
 73
     0
 40
0.0
  0
LTYPE
  5
16
330
5
100
AcDbSymbolTableRecord
100
AcDbLinetypeTableRecord
  2
Continuous
 70
     0
  3
Solid line
 72
    65
 73
     0
 40
0.0
  0
LTYPE
  5
3C
330
5
100
AcDbSymbolTableRecord
100
AcDbLinetypeTableRecord
  2
Durchgehend
 70
     0
  3
Durchgehend
 72
    65
 73
     0
 40
0.0
  0
LTYPE
  5
3D
330
5
100
AcDbSymbolTableRecord
100
AcDbLinetypeTableRecord
  2
Rand
 70
     0
  3
Rand
 72
    65
 73
     6
 40
1.75
 49
0.5
 74
     0
 49
-0.25
 74
     0
 49
0.5
 74
     0
 49
-0.25
 74
     0
 49
0.0
 74
     0
 49
-0.25
 74
     0
  0
LTYPE
  5
3E
330
5
100
AcDbSymbolTableRecord
100
AcDbLinetypeTableRecord
  2
Mitte
 70
     0
  3
Mitte
 72
    65
 73
     4
 40
2.0
 49
1.25
 74
     0
 49
-0.25
 74
     0
 49
0.25
 74
     0
 49
-0.25
 74
     0
  0
LTYPE
  5
3F
330
5
100
AcDbSymbolTableRecord
100
AcDbLinetypeTableRecord
  2
Strichpunkt
 70
     0
  3
Strichpunkt
 72
    65
 73
     4
 40
1.0
 49
0.5
 74
     0
 49
-0.25
 74
     0
 49
0.0
 74
     0
 49
-0.25
 74
     0
  0
LTYPE
  5
40
330
5
100
AcDbSymbolTableRecord
100
AcDbLinetypeTableRecord
  2
Gestrichelt
 70
     0
  3
Gestrichelt
 72
    65
 73
     2
 40
0.75
 49
0.5
 74
     0
 49
-0.25
 74
     0
  0
LTYPE
  5
41
330
5
100
AcDbSymbolTableRecord
100
AcDbLinetypeTableRecord
  2
Geteilt
 70
     0
  3
Geteilt
 72
    65
 73
     6
 40
1.25
 49
0.5
 74
     0
 49
-0.25
 74
     0
 49
0.0
 74
     0
 49
-0.25
 74
     0
 49
0.0
 74
     0
 49
-0.25
 74
     0
  0
LTYPE
  5
42
330
5
100
AcDbSymbolTableRecord
100
AcDbLinetypeTableRecord
  2
Punkt
 70
     0
  3
Punkt
 72
    65
 73
     2
 40
0.25
 49
0.0
 74
     0
 49
-0.25
 74
     0
  0
LTYPE
  5
43
330
5
100
AcDbSymbolTableRecord
100
AcDbLinetypeTableRecord
  2
Verdeckt
 70
     0
  3
Verdeckt
 72
    65
 73
     2
 40
0.375
 49
0.25
 74
     0
 49
-0.125
 74
     0
  0
LTYPE
  5
44
330
5
100
AcDbSymbolTableRecord
100
AcDbLinetypeTableRecord
  2
$INVISIBLE
 70
     0
  3
$INVISIBLE
 72
    65
 73
     2
 40
200.0
 49
-100.0
 74
     0
 49
-100.0
 74
     0
  0
LTYPE
  5
45
330
5
100
AcDbSymbolTableRecord
100
AcDbLinetypeTableRecord
  2
$SNAPEXT
 70
     0
  3
$SNAPEXT
 72
    65
 73
     2
 40
0.0399999991059303
 49
0.0199999995529652
 74
     0
 49
-0.0199999995529652
 74
     0
  0
LTYPE
  5
46
330
5
100
AcDbSymbolTableRecord
100
AcDbLinetypeTableRecord
  2
$AUXILIARY
 70
     0
  3
$AUXILIARY
 72
    65
 73
     2
 40
0.1000000014901161
 49
0.0500000007450581
 74
     0
 49
-0.0500000007450581
 74
     0
  0
ENDTAB
  0
TABLE
  2
LAYER
  5
2
330
0
100
AcDbSymbolTable
 70
     2
  0
LAYER
  5
10
330
2
100
AcDbSymbolTableRecord
100
AcDbLayerTableRecord
  2
0
 70
     0
 62
     7
  6
Durchgehend
370
     0
390
F
  0
LAYER
  5
51
330
2
100
AcDbSymbolTableRecord
100
AcDbLayerTableRecord
  2
ASHADE
 70
     0
 62
     7
  6
Continuous
370
    -3
390
F
  0
ENDTAB
  0
TABLE
  2
STYLE
  5
3
330
0
100
AcDbSymbolTable
 70
     2
  0
STYLE
  5
11
330
3
100
AcDbSymbolTableRecord
100
AcDbTextStyleTableRecord
  2
Standard
 70
     0
 40
0.0
 41
1.0
 50
0.0
 71
     0
 42
5.0
  3
TIMES.TTF
  4

1001
ACAD
1000
Times New Roman
1071
      290
  0
STYLE
  5
50
330
3
100
AcDbSymbolTableRecord
100
AcDbTextStyleTableRecord
  2
ASHADE
 70
     0
 40
0.2
 41
1.0
 50
0.0
 71
     0
 42
2.5
  3
simplex.shx
  4

  0
ENDTAB
  0
TABLE
  2
VIEW
  5
6
330
0
100
AcDbSymbolTable
 70
     1
  0
VIEW
  5
47
330
6
100
AcDbSymbolTableRecord
100
AcDbViewTableRecord
  2
Ansicht_0
 70
     0
 40
210.0
 10
148.5
 20
105.0
 41
297.0
 11
0.0
 21
0.0
 31
1.0
 12
0.0
 22
0.0
 32
0.0
 42
50.0
 43
0.0
 44
0.0
 50
0.0
 71
     0
281
     0
 72
     0
  0
ENDTAB
  0
TABLE
  2
UCS
  5
7
330
0
100
AcDbSymbolTable
 70
     0
  0
ENDTAB
  0
TABLE
  2
APPID
  5
9
330
0
100
AcDbSymbolTable
 70
     7
  0
APPID
  5
12
330
9
100
AcDbSymbolTableRecord
100
AcDbRegAppTableRecord
  2
ACAD
 70
     0
  0
APPID
  5
3B
330
9
100
AcDbSymbolTableRecord
100
AcDbRegAppTableRecord
  2
TCAD
 70
     0
  0
APPID
  5
92
330
9
100
AcDbSymbolTableRecord
100
AcDbRegAppTableRecord
  2
AVE_RENDER
 70
     0
  0
APPID
  5
D0
330
9
100
AcDbSymbolTableRecord
100
AcDbRegAppTableRecord
  2
ACAD_DSTYLE_DIMTEXT_FILL
 70
     0
  0
APPID
  5
D1
330
9
100
AcDbSymbolTableRecord
100
AcDbRegAppTableRecord
  2
ACAD_DSTYLE_DIM_LINETYPE
 70
     0
  0
APPID
  5
D2
330
9
100
AcDbSymbolTableRecord
100
AcDbRegAppTableRecord
  2
ACAD_DSTYLE_DIM_EXT1_LINETYPE
 70
     0
  0
APPID
  5
D3
330
9
100
AcDbSymbolTableRecord
100
AcDbRegAppTableRecord
  2
ACAD_DSTYLE_DIM_EXT2_LINETYPE
 70
     0
  0
ENDTAB
  0
TABLE
  2
DIMSTYLE
  5
A
330
0
100
AcDbSymbolTable
 70
     1
100
AcDbDimStyleTable
  0
DIMSTYLE
105
27
330
A
100
AcDbSymbolTableRecord
100
AcDbDimStyleTableRecord
  2
Standard
 70
     0
  3
 mm
  4
 mm
 41
3.0
 42
1.0
 43
7.5
 44
2.0
 45
0.2
 74
     0
 77
     1
 78
     1
140
3.0
141
0.0
143
1.0
147
2.0
148
0.01
172
     1
176
     7
177
     7
178
     7
271
     2
272
     3
276
     2
278
     0
340
11
1001
ACAD_DSTYLE_DIMTEXT_FILL
1070
   376
1070
     0
1001
ACAD_DSTYLE_DIM_LINETYPE
1070
   380
1005
14
1001
ACAD_DSTYLE_DIM_EXT1_LINETYPE
1070
   381
1005
14
1001
ACAD_DSTYLE_DIM_EXT2_LINETYPE
1070
   382
1005
14
  0
ENDTAB
  0
TABLE
  2
BLOCK_RECORD
  5
1
330
0
100
AcDbSymbolTable
 70
     3
  0
BLOCK_RECORD
  5
1F
330
1
100
AcDbSymbolTableRecord
100
AcDbBlockTableRecord
  2
*Model_Space
340
22
  0
BLOCK_RECORD
  5
1B
330
1
100
AcDbSymbolTableRecord
100
AcDbBlockTableRecord
  2
*Paper_Space
340
1E
  0
BLOCK_RECORD
  5
52
330
1
100
AcDbSymbolTableRecord
100
AcDbBlockTableRecord
  2
OVERHEAD
340
0
102
{BLKREFS
331
91
331
9E
102
}
  0
BLOCK_RECORD
  5
AA
330
1
100
AcDbSymbolTableRecord
100
AcDbBlockTableRecord
  2
DIRECT
340
0
102
{BLKREFS
331
BE
102
}
  0
ENDTAB
  0
ENDSEC
  0
SECTION
  2
BLOCKS
  0
BLOCK
  5
20
330
1F
100
AcDbEntity
  8
0
100
AcDbBlockBegin
  2
*Model_Space
 70
     0
 10
0.0
 20
0.0
 30
0.0
  3
*Model_Space
  1

  0
ENDBLK
  5
21
330
1F
100
AcDbEntity
  8
0
100
AcDbBlockEnd
  0
BLOCK
  5
1C
330
1B
100
AcDbEntity
 67
     1
  8
0
100
AcDbBlockBegin
  2
*Paper_Space
 70
     0
 10
0.0
 20
0.0
 30
0.0
  3
*Paper_Space
  1

  0
ENDBLK
  5
1D
330
1B
100
AcDbEntity
 67
     1
  8
0
100
AcDbBlockEnd
  0
BLOCK
  5
8F
330
52
100
AcDbEntity
  8
0
100
AcDbBlockBegin
  2
OVERHEAD
 70
     2
 10
0.0
 20
0.0
 30
0.0
  3
OVERHEAD
  1

  0
ATTDEF
  5
75
330
52
100
AcDbEntity
  8
ASHADE
  6
Continuous
 62
     1
420
 16711680
100
AcDbText
 10
-0.480952380952381
 20
-0.1
 30
0.0
 40
0.2
  1

  7
ASHADE
 72
     1
 11
0.0
 21
-0.1
 31
0.0
100
AcDbAttributeDefinition
  3
Light Name
  2
SNAME
 70
     0
  0
ATTDEF
  5
76
330
52
100
AcDbEntity
  8
ASHADE
  6
Continuous
 62
     7
100
AcDbText
 10
0.0
 20
0.28
 30
0.0
 40
0.01
  1

100
AcDbAttributeDefinition
  3

  2
GNAME
 70
     1
  0
ATTDEF
  5
77
330
52
100
AcDbEntity
  8
ASHADE
  6
Continuous
 62
     7
100
AcDbText
 10
0.0
 20
0.265
 30
0.0
 40
0.01
  1

100
AcDbAttributeDefinition
  3
Look-at X
  2
LAX
 70
     1
  0
ATTDEF
  5
78
330
52
100
AcDbEntity
  8
ASHADE
  6
Continuous
 62
     7
100
AcDbText
 10
0.0
 20
0.25
 30
0.0
 40
0.01
  1

100
AcDbAttributeDefinition
  3
Look-at Y
  2
LAY
 70
     1
  0
ATTDEF
  5
79
330
52
100
AcDbEntity
  8
ASHADE
  6
Continuous
 62
     7
100
AcDbText
 10
0.0
 20
0.235
 30
0.0
 40
0.01
  1

100
AcDbAttributeDefinition
  3
Look-at Z
  2
LAZ
 70
     1
  0
ATTDEF
  5
7A
330
52
100
AcDbEntity
  8
ASHADE
  6
Continuous
 62
     7
100
AcDbText
 10
0.0
 20
0.22
 30
0.0
 40
0.01
  1
1
100
AcDbAttributeDefinition
  3
Light Intensity
  2
INTENSITY
 70
     1
  0
ATTDEF
  5
7B
330
52
100
AcDbEntity
  8
ASHADE
  6
Continuous
 62
     7
100
AcDbText
 10
0.0
 20
0.205
 30
0.0
 40
0.01
  1
1,1,1
100
AcDbAttributeDefinition
  3
Light Color (RGB)
  2
COLOR
 70
     1
  0
ATTDEF
  5
7C
330
52
100
AcDbEntity
  8
ASHADE
  6
Continuous
 62
     7
100
AcDbText
 10
0.0
 20
0.19
 30
0.0
 40
0.01
  1
0
100
AcDbAttributeDefinition
  3
Depth Map Size
  2
CONEA
 70
     1
  0
ATTDEF
  5
7D
330
52
100
AcDbEntity
  8
ASHADE
  6
Continuous
 62
     7
100
AcDbText
 10
0.0
 20
0.175
 30
0.0
 40
0.01
  1
-1
100
AcDbAttributeDefinition
  3
*not used*
  2
CONED
 70
     1
  0
ATTDEF
  5
7E
330
52
100
AcDbEntity
  8
ASHADE
  6
Continuous
 62
     7
100
AcDbText
 10
0.0
 20
0.16
 30
0.0
 40
0.01
  1
-1
100
AcDbAttributeDefinition
  3
*not used*
  2
BEAMD
 70
     1
  0
ARC
  5
7F
330
52
100
AcDbEntity
  8
ASHADE
  6
Continuous
 62
     7
100
AcDbCircle
 10
0.0
 20
0.0
 30
0.0
 40
0.3
100
AcDbArc
 50
205.679289
 51
334.320711
  0
ARC
  5
80
330
52
100
AcDbEntity
  8
ASHADE
  6
Continuous
 62
     7
100
AcDbCircle
 10
0.0
 20
0.0
 30
0.0
 40
0.3
100
AcDbArc
 50
25.679289
 51
154.320711
  0
LINE
  5
81
330
52
100
AcDbEntity
  8
ASHADE
  6
Continuous
 62
     7
100
AcDbLine
 10
-0.27037
 20
-0.13
 30
0.0
 11
-0.315432
 21
-0.151667
 31
0.0
  0
LINE
  5
82
330
52
100
AcDbEntity
  8
ASHADE
  6
Continuous
 62
     7
100
AcDbLine
 10
-0.204141
 20
-0.219832
 30
0.0
 11
-0.272188
 21
-0.29311
 31
0.0
  0
LINE
  5
83
330
52
100
AcDbEntity
  8
ASHADE
  6
Continuous
 62
     7
100
AcDbLine
 10
-0.109659
 20
-0.27924
 30
0.0
 11
-0.127936
 21
-0.32578
 31
0.0
  0
LINE
  5
84
330
52
100
AcDbEntity
  8
ASHADE
  6
Continuous
 62
     7
100
AcDbLine
 10
0.0
 20
-0.3
 30
0.0
 11
0.0
 21
-0.4
 31
0.0
  0
LINE
  5
85
330
52
100
AcDbEntity
  8
ASHADE
  6
Continuous
 62
     7
100
AcDbLine
 10
0.109659
 20
-0.27924
 30
0.0
 11
0.127936
 21
-0.32578
 31
0.0
  0
LINE
  5
86
330
52
100
AcDbEntity
  8
ASHADE
  6
Continuous
 62
     7
100
AcDbLine
 10
0.204141
 20
-0.219832
 30
0.0
 11
0.272188
 21
-0.29311
 31
0.0
  0
LINE
  5
87
330
52
100
AcDbEntity
  8
ASHADE
  6
Continuous
 62
     7
100
AcDbLine
 10
0.27037
 20
-0.13
 30
0.0
 11
0.315432
 21
-0.151667
 31
0.0
  0
LINE
  5
88
330
52
100
AcDbEntity
  8
ASHADE
  6
Continuous
 62
     7
100
AcDbLine
 10
-0.109659
 20
0.27924
 30
0.0
 11
-0.127936
 21
0.32578
 31
0.0
  0
LINE
  5
89
330
52
100
AcDbEntity
  8
ASHADE
  6
Continuous
 62
     7
100
AcDbLine
 10
-0.204141
 20
0.219832
 30
0.0
 11
-0.272188
 21
0.29311
 31
0.0
  0
LINE
  5
8A
330
52
100
AcDbEntity
  8
ASHADE
  6
Continuous
 62
     7
100
AcDbLine
 10
-0.27037
 20
0.13
 30
0.0
 11
-0.315432
 21
0.151667
 31
0.0
  0
LINE
  5
8B
330
52
100
AcDbEntity
  8
ASHADE
  6
Continuous
 62
     7
100
AcDbLine
 10
0.27037
 20
0.13
 30
0.0
 11
0.315432
 21
0.151667
 31
0.0
  0
LINE
  5
8C
330
52
100
AcDbEntity
  8
ASHADE
  6
Continuous
 62
     7
100
AcDbLine
 10
0.204141
 20
0.219832
 30
0.0
 11
0.272188
 21
0.29311
 31
0.0
  0
LINE
  5
8D
330
52
100
AcDbEntity
  8
ASHADE
  6
Continuous
 62
     7
100
AcDbLine
 10
0.109659
 20
0.27924
 30
0.0
 11
0.127936
 21
0.32578
 31
0.0
  0
LINE
  5
8E
330
52
100
AcDbEntity
  8
ASHADE
  6
Continuous
 62
     7
100
AcDbLine
 10
0.0
 20
0.3
 30
0.0
 11
0.0
 21
0.4
 31
0.0
  0
ENDBLK
  5
90
330
52
100
AcDbEntity
  8
0
100
AcDbBlockEnd
  0
BLOCK
  5
BC
330
AA
100
AcDbEntity
  8
0
100
AcDbBlockBegin
  2
DIRECT
 70
     2
 10
0.0
 20
0.0
 30
0.0
  3
DIRECT
  1

  0
ATTDEF
  5
AB
330
AA
100
AcDbEntity
  8
ASHADE
  6
Continuous
 62
     1
420
 16711680
100
AcDbText
 10
-0.480952380952381
 20
-0.1
 30
0.0
 40
0.2
  1

  7
ASHADE
 72
     1
 11
0.0
 21
-0.1
 31
0.0
100
AcDbAttributeDefinition
  3
Light Name
  2
SNAME
 70
     0
  0
ATTDEF
  5
AC
330
AA
100
AcDbEntity
  8
ASHADE
  6
Continuous
 62
     7
100
AcDbText
 10
0.0
 20
0.28
 30
0.0
 40
0.01
  1

100
AcDbAttributeDefinition
  3

  2
GNAME
 70
     1
  0
ATTDEF
  5
AD
330
AA
100
AcDbEntity
  8
ASHADE
  6
Continuous
 62
     7
100
AcDbText
 10
0.0
 20
0.265
 30
0.0
 40
0.01
  1

100
AcDbAttributeDefinition
  3
Look-at X
  2
LAX
 70
     1
  0
ATTDEF
  5
AE
330
AA
100
AcDbEntity
  8
ASHADE
  6
Continuous
 62
     7
100
AcDbText
 10
0.0
 20
0.25
 30
0.0
 40
0.01
  1

100
AcDbAttributeDefinition
  3
Look-at Y
  2
LAY
 70
     1
  0
ATTDEF
  5
AF
330
AA
100
AcDbEntity
  8
ASHADE
  6
Continuous
 62
     7
100
AcDbText
 10
0.0
 20
0.235
 30
0.0
 40
0.01
  1

100
AcDbAttributeDefinition
  3
Look-at Z
  2
LAZ
 70
     1
  0
ATTDEF
  5
B0
330
AA
100
AcDbEntity
  8
ASHADE
  6
Continuous
 62
     7
100
AcDbText
 10
0.0
 20
0.22
 30
0.0
 40
0.01
  1
1
100
AcDbAttributeDefinition
  3
Light Intensity
  2
INTENSITY
 70
     1
  0
ATTDEF
  5
B1
330
AA
100
AcDbEntity
  8
ASHADE
  6
Continuous
 62
     7
100
AcDbText
 10
0.0
 20
0.205
 30
0.0
 40
0.01
  1
1,1,1
100
AcDbAttributeDefinition
  3
Light Color (RGB)
  2
COLOR
 70
     1
  0
ATTDEF
  5
B2
330
AA
100
AcDbEntity
  8
ASHADE
  6
Continuous
 62
     7
100
AcDbText
 10
0.0
 20
0.19
 30
0.0
 40
0.01
  1
0
100
AcDbAttributeDefinition
  3
Depth Map Size
  2
CONEA
 70
     1
  0
ATTDEF
  5
B3
330
AA
100
AcDbEntity
  8
ASHADE
  6
Continuous
 62
     7
100
AcDbText
 10
0.0
 20
0.175
 30
0.0
 40
0.01
  1
-1
100
AcDbAttributeDefinition
  3
*not used*
  2
CONED
 70
     1
  0
ATTDEF
  5
B4
330
AA
100
AcDbEntity
  8
ASHADE
  6
Continuous
 62
     7
100
AcDbText
 10
0.0
 20
0.16
 30
0.0
 40
0.01
  1
-1
100
AcDbAttributeDefinition
  3
*not used*
  2
BEAMD
 70
     1
  0
ARC
  5
B5
330
AA
100
AcDbEntity
  8
ASHADE
  6
Continuous
 62
     7
100
AcDbCircle
 10
0.0
 20
0.0
 30
0.0
 40
0.3
100
AcDbArc
 50
205.679289
 51
334.320711
  0
ARC
  5
B6
330
AA
100
AcDbEntity
  8
ASHADE
  6
Continuous
 62
     7
100
AcDbCircle
 10
0.0
 20
0.0
 30
0.0
 40
0.3
100
AcDbArc
 50
25.679289
 51
154.320711
  0
LINE
  5
B7
330
AA
100
AcDbEntity
  8
ASHADE
  6
Continuous
 62
     7
100
AcDbLine
 10
0.21
 20
0.214243
 30
0.0
 11
0.21
 21
0.5
 31
0.0
  0
LINE
  5
B8
330
AA
100
AcDbEntity
  8
ASHADE
  6
Continuous
 62
     7
100
AcDbLine
 10
0.11
 20
0.279106
 30
0.0
 11
0.11
 21
0.5
 31
0.0
  0
LINE
  5
B9
330
AA
100
AcDbEntity
  8
ASHADE
  6
Continuous
 62
     7
100
AcDbLine
 10
0.0
 20
0.3
 30
0.0
 11
0.0
 21
0.5
 31
0.0
  0
LINE
  5
BA
330
AA
100
AcDbEntity
  8
ASHADE
  6
Continuous
 62
     7
100
AcDbLine
 10
-0.11
 20
0.279106
 30
0.0
 11
-0.11
 21
0.5
 31
0.0
  0
LINE
  5
BB
330
AA
100
AcDbEntity
  8
ASHADE
  6
Continuous
 62
     7
100
AcDbLine
 10
-0.21
 20
0.214243
 30
0.0
 11
-0.21
 21
0.5
 31
0.0
  0
ENDBLK
  5
BD
330
AA
100
AcDbEntity
  8
0
100
AcDbBlockEnd
  0
ENDSEC
  0
SECTION
  2
ENTITIES
  0
3DSOLID
  5
4A
102
{ACAD_XDICTIONARY
360
CC
102
}
330
1F
100
AcDbEntity
  8
0
  6
Durchgehend
 62
     7
370
     0
100
AcDbModelerGeometry
 70
     1
  1
mogoo nij m o 
  1
_ll P/:1 [:,681 ^ 336>1<: ^ \VL ]*63;:- _nk ^ \VL mogqoo QK _mk L>+ R>- of nkekfemh monl 
  1
n fqfffffffffffffffj:rooh n:rono 
  1
>,27:>;:- {rn rn _nm mogqoqkqhoof |
  1
=0;& {rn rn {rn {m {rn {l |
  1
3*2/ {rn rn {rn {rn {k {n |
  1
+->1,90-2 {rn rn n o o o n o o o n koqooooooooooooonk rno nqjoooooooooooooof n 10@-0+>+: 10@-:93:<+ 10@,7:>- |
  1
,7:33 {rn rn {rn {rn {rn {j {rn {m |
  1
9><: {rn rn {rn {i {h {k {rn {g -:):-,:; ,6183: |
  1
9><: {rn rn {rn {f {no {k {rn {nn -:):-,:; ,6183: |
  1
300/ {rn rn {rn {nm {nl {j |
  1
<01:r,*-9><: {rn rn {rn rloqooooooooooooonk o rnqjoooooooooooooof o o n mqmj o o n V V o n mqmj 90-(>-; V V V V |
  1
9><: {rn rn {rn {nk {nj {k {rn {ni -:):-,:; ,6183: |
  1
300/ {rn rn {rn {nh {ng {i |
  1
<01:r,*-9><: {rn rn {rn rnoqooooooooooooonk o rnqjoooooooooooooof o o n mqmj o o n V V o n mqmj 90-(>-; V V V V |
  1
300/ {rn rn {rn {rn {nf {j |
  1
<0:;8: {rn rn {rn {nl {nl {mo {mn -:):-,:; {h {rn |
  1
9><: {rn rn {rn {mm {ml {k {rn {mk -:):-,:; ,6183: |
  1
300/ {rn rn {rn {mj {mi {f |
  1
<01:r,*-9><: {rn rn {rn fqfffffffffffffgjg o rnqjoooooooooooooof o o n mqmj o o n V V o n mqmj 90-(>-; V V V V |
  1
300/ {rn rn {rn {rn {mh {i |
  1
<0:;8: {rn rn {rn {ng {ng {mg {mf -:):-,:; {no {rn |
  1
<0:;8: {rn rn {rn {nf {nf {lo {ln -:):-,:; {nm {rn |
  1
<0:;8: {rn rn {rn {mo {mo {nl {mn 90-(>-; {lm {rn |
  1
:;8: {rn rn {rn {ll rlqnknjfmijljgfhfln {ll lqnknjfmijljgfhfln {mo {lk 90-(>-; _h *1410(1 |
  1
9><: {lj rn {rn {li {lm {k {rn {lh 90-(>-; ,6183: |
  1
300/ {rn rn {rn {lg {lf {nk |
  1
<01:r,*-9><: {rn rn {rn mfqfffffffffffffgi o rnqjoooooooooooooof o o n mqmj o o n V V o n mqmj 90-(>-; V V V V |
  1
300/ {rn rn {rn {rn {ko {f |
  1
<0:;8: {rn rn {rn {mi {mi {kn {km -:):-,:; {nj {rn |
  1
<0:;8: {rn rn {rn {mh {mh {kl {kk -:):-,:; {nh {rn |
  1
<0:;8: {rn rn {rn {mg {mg {ng {mf 90-(>-; {kj {rn |
  1
:;8: {rn rn {rn {ki rlqnknjfmijljgfhfln {ki lqnknjfmijljgfhfln {mg {kh 90-(>-; _h *1410(1 |
  1
<0:;8: {rn rn {rn {lo {lo {nf {ln 90-(>-; {kg {rn |
  1
:;8: {rn rn {rn {kf o {kf iqmglngjlohnhfjgim {lo {jo 90-(>-; _h *1410(1 |
  1
300/ {rn rn {rn {kj {mo {mm |
  1
):-+:' {rn rn {rn {mn {jn |
  1
:336/,:r<*-): {rn rn {rn rloqooooooooooooonk o nqjooooooooooooook o o rn mqmj o o n V V |
  1
,+-618@>++-6=r1>2:@>++-6=r8:1r>++-6= {rn rn {rn {rn {mm <0/& 4::/@4:/+ 6810-: <0/& _nn 3(@2>+:-6>3 _ml R:+>33CW:33:, ^ 3*2616*2 |
  1
9><: {jm rn {rn {jl {kg {k {rn {jk -:):-,:; ,6183: |
  1
/3>1:r,*-9><: {rn rn {rn o o nqjooooooooooooook o o n n o o 90-(>-;@) V V V V |
  1
300/ {rn rn {rn {rn {jj {nk |
  1
<0:;8: {rn rn {rn {lf {lf {ji {jh -:):-,:; {ml {rn |
  1
<0:;8: {rn rn {rn {ko {ko {jg {jf -:):-,:; {mj {rn |
  1
<0:;8: {rn rn {rn {kn {kn {mi {km 90-(>-; {io {rn |
  1
:;8: {rn rn {rn {in rlqnknjfmijljgfhfln {in lqnknjfmijljgfhfln {kn {im 90-(>-; _h *1410(1 |
  1
<0:;8: {rn rn {rn {kl {kl {mh {kk 90-(>-; {il {rn |
  1
:;8: {rn rn {rn {ik o {ik iqmglngjlohnhfjgim {kl {ij 90-(>-; _h *1410(1 |
  1
300/ {rn rn {rn {io {mg {mm |
  1
):-+:' {rn rn {rn {mf {ii |
  1
:336/,:r<*-): {rn rn {rn rnoqooooooooooooonk o nqjooooooooooooook o o rn mqmj o o n V V |
  1
300/ {rn rn {rn {il {lo {li |
  1
):-+:' {rn rn {rn {ln {ih |
  1
:336/,:r<*-): {rn rn {rn rloqooooooooooooonk o rnqjooooooooooooook o o n mqmj o o n V V |
  1
/061+ {rn rn {rn rlmqmjooooooooooonk mqhjjlikmfinoolkgg:roni nqjooooooooooooook |
  1
,+-618@>++-6=r1>2:@>++-6=r8:1r>++-6= {rn rn {rn {rn {li <0/& 4::/@4:/+ 6810-: <0/& _nn 3(@2>+:-6>3 _ml R:+>33CW:33:, ^ 3*2616*2 |
  1
9><: {ig rn {rn {if {ho {k {rn {hn -:):-,:; ,6183: |
  1
/3>1:r,*-9><: {rn rn {rn o o rnqjooooooooooooook o o n n o o 90-(>-;@) V V V V |
  1
<0:;8: {rn rn {rn {jj {jj {hm {hl -:):-,:; {lg {rn |
  1
<0:;8: {rn rn {rn {ji {ji {lf {jh 90-(>-; {hk {rn |
  1
:;8: {rn rn {rn {hj rlqnknjfmijljgfhfln {hj lqnknjfmijljgfhfln {ji {hi 90-(>-; _h *1410(1 |
  1
<0:;8: {rn rn {rn {jg {jg {ko {jf 90-(>-; {hh {rn |
  1
:;8: {rn rn {rn {hg o {hg iqmglngjlohnhfjgim {jg {hf 90-(>-; _h *1410(1 |
  1
300/ {rn rn {rn {hk {kn {mm |
  1
):-+:' {rn rn {rn {km {go |
  1
:336/,:r<*-): {rn rn {rn fqfffffffffffffgjg o nqjooooooooooooook o o rn mqmj o o n V V |
  1
300/ {rn rn {rn {hh {kl {li |
  1
):-+:' {rn rn {rn {kk {gn |
  1
:336/,:r<*-): {rn rn {rn rnoqooooooooooooonk o rnqjooooooooooooook o o n mqmj o o n V V |
  1
/061+ {rn rn {rn rnmqmjooooooooooonk mqhjjlikmfinoolkgg:roni nqjooooooooooooook |
  1
/061+ {rn rn {rn rmhqhjooooooooooonk o rnqjoooooooooooooof |
  1
,+-618@>++-6=r1>2:@>++-6=r8:1r>++-6= {rn rn {rn {rn {jl <0/& 4::/@4:/+ 6810-: <0/& _nn 3(@2>+:-6>3 _ml R:+>33CW:33:, ^ 3*2616*2 |
  1
9><: {gm rn {rn {gl {gk {k {rn {gj -:):-,:; ,6183: |
  1
300/ {rn rn {rn {rn {gi {jl |
  1
/3>1:r,*-9><: {rn rn {rn o rno o o n o o o n 90-(>-;@) V V V V |
  1
<0:;8: {rn rn {rn {hm {hm {jj {hl 90-(>-; {gh {rn |
  1
:;8: {rn rn {rn {gg o {gg iqmglngjlohnhfjgim {hm {gf 90-(>-; _h *1410(1 |
  1
300/ {rn rn {rn {fo {ji {mm |
  1
):-+:' {rn rn {rn {jh {fn |
  1
:336/,:r<*-): {rn rn {rn mfqfffffffffffffgi o nqjooooooooooooook o o rn mqmj o o n V V |
  1
300/ {rn rn {rn {gh {jg {li |
  1
):-+:' {rn rn {rn {jf {fm |
  1
:336/,:r<*-): {rn rn {rn fqfffffffffffffgjg o rnqjooooooooooooook o o n mqmj o o n V V |
  1
/061+ {rn rn {rn hqhkfffffffffffgjg mqhjjlikmfinoolkgg:roni nqjooooooooooooook |
  1
/061+ {rn rn {rn rhqhjooooooooooonkm o rnqjoooooooooooooof |
  1
,+-618@>++-6=r1>2:@>++-6=r8:1r>++-6= {rn rn {rn {rn {if <0/& 4::/@4:/+ 6810-: <0/& _nn 3(@2>+:-6>3 _ml R:+>33CW:33:, ^ 3*2616*2 |
  1
9><: {fl rn {rn {fk {fj {k {rn {fi -:):-,:; ,6183: |
  1
300/ {rn rn {rn {rn {fh {if |
  1
/3>1:r,*-9><: {rn rn {rn rkoqooooooooooooooh o o n o o o o rn 90-(>-;@) V V V V |
  1
<0:;8: {rn rn {rn {fg {ff {noo {non 90-(>-; {ho {rn |
  1
300/ {rn rn {rn {nom {hm {li |
  1
):-+:' {rn rn {rn {hl {nol |
  1
:336/,:r<*-): {rn rn {rn mfqfffffffffffffgi o rnqjooooooooooooook o o n mqmj o o n V V |
  1
300/ {rn rn {rn {rn {nok {mm |
  1
/061+ {rn rn {rn mhqhkfffffffffffgi mqhjjlikmfinoolkgg:roni nqjooooooooooooook |
  1
/061+ {rn rn {rn nmqmkfffffffffffgi o rnqjoooooooooooooof |
  1
,+-618@>++-6=r1>2:@>++-6=r8:1r>++-6= {rn rn {rn {rn {gl <0/& 4::/@4:/+ 6810-: <0/& _nn 3(@2>+:-6>3 _ml R:+>33CW:33:, ^ 3*2616*2 |
  1
9><: {noj rn {rn {rn {noi {k {rn {noh -:):-,:; ,6183: |
  1
300/ {rn rn {rn {rn {nog {gl |
  1
/3>1:r,*-9><: {rn rn {rn o no o o rn o o o rn 90-(>-;@) V V V V |
  1
<0:;8: {rn rn {rn {nof {nno {nnn {nnm 90-(>-; {gk {rn |
  1
<0:;8: {rn rn {rn {nnl {gi {nnk {nnj -:):-,:; {ho {rn |
  1
<0:;8: {rn rn {rn {gi {nnl {nni {nnh -:):-,:; {ho {rn |
  1
<0:;8: {rn rn {rn {nno {nof {gi {non -:):-,:; {gk {rn |
  1
:;8: {rn rn {rn {nng rnqjooooooooooooook {nnf nqjooooooooooooook {noo {nmo 90-(>-; _h *1410(1 |
  1
300/ {rn rn {rn {rn {nmn {li |
  1
/061+ {rn rn {rn lmqmkfffffffffffgi o rnqjoooooooooooooof |
  1
<0:;8: {rn rn {rn {nmm {nni {nml {nmk 90-(>-; {fo {rn |
  1
,+-618@>++-6=r1>2:@>++-6=r8:1r>++-6= {rn rn {rn {rn {fk <0/& 4::/@4:/+ 6810-: <0/& _nn 3(@2>+:-6>3 _ml R:+>33CW:33:, ^ 3*2616*2 |
  1
300/ {rn rn {rn {rn {nmj {fk |
  1
/3>1:r,*-9><: {rn rn {rn koqooooooooooooooh o o rn o o o o n 90-(>-;@) V V V V |
  1
<0:;8: {rn rn {rn {nmi {nmh {nmg {nmf 90-(>-; {fj {rn |
  1
<0:;8: {rn rn {rn {noo {fh {nlo {nln -:):-,:; {gk {rn |
  1
<0:;8: {rn rn {rn {fh {noo {nlm {nll -:):-,:; {gk {rn |
  1
<0:;8: {rn rn {rn {nmh {nmi {fh {nnm -:):-,:; {fj {rn |
  1
:;8: {rn rn {rn {nlk rnqjooooooooooooook {nlj nqjooooooooooooook {nnn {nli 90-(>-; _h *1410(1 |
  1
<0:;8: {rn rn {rn {ff {fg {nmj {nlh -:):-,:; {ho {rn |
  1
<0:;8: {rn rn {rn {nlo {nmn {fg {nnj 90-(>-; {nom {rn |
  1
:;8: {rn rn {rn {nlg rkoqooooooooooooooh {nnf koqooooooooooooooh {fg {nlf 90-(>-; _h *1410(1 |
  1
<0:;8: {rn rn {rn {nok {nlm {ff {nnh 90-(>-; {fo {rn |
  1
:;8: {rn rn {rn {nng rkoqooooooooooooooh {nko koqooooooooooooooh {ff {nkn 90-(>-; _h *1410(1 |
  1
):-+:' {rn rn {rn {nll {nkm |
  1
):-+:' {rn rn {rn {nln {nkl |
  1
,+->687+r<*-): {rn rn {rn rkoqooooooooooooooh rno o o o rn V V |
  1
<0:;8: {rn rn {rn {nnk {nkk {nkj {nki 90-(>-; {nom {rn |
  1
<0:;8: {rn rn {rn {nlm {nok {nmh {nkh 90-(>-; {fo {rn |
  1
<0:;8: {rn rn {rn {nmj {nmg {nok {nmk -:):-,:; {noi {rn |
  1
:;8: {rn rn {rn {nko rno {nkg no {nml {nkf 90-(>-; _h *1410(1 |
  1
<0:;8: {rn rn {rn {nkj {nml {nnl {nlh 90-(>-; {noi {rn |
  1
<0:;8: {rn rn {rn {nnn {nog {nkk {njo -:):-,:; {fj {rn |
  1
<0:;8: {rn rn {rn {nog {nnn {nmm {nkh -:):-,:; {fj {rn |
  1
<0:;8: {rn rn {rn {nml {nkj {nog {nmf -:):-,:; {noi {rn |
  1
:;8: {rn rn {rn {nkg rnqjooooooooooooook {njn nqjooooooooooooook {nmg {njm 90-(>-; _h *1410(1 |
  1
<0:;8: {rn rn {rn {nkk {nnk {nof {nln 90-(>-; {nom {rn |
  1
:;8: {rn rn {rn {nnf rno {nlj no {nof {njl 90-(>-; _h *1410(1 |
  1
<0:;8: {rn rn {rn {nni {nmm {nno {nll 90-(>-; {fo {rn |
  1
:;8: {rn rn {rn {nlk rno {nng no {nno {njk 90-(>-; _h *1410(1 |
  1
):-+:' {rn rn {rn {nkh {njj |
  1
):-+:' {rn rn {rn {njo {nji |
  1
,+->687+r<*-): {rn rn {rn rkoqooooooooooooooh no o o o rn V V |
  1
:;8: {rn rn {rn {nko rnqjooooooooooooook {nlg nqjooooooooooooook {nmj {njh 90-(>-; _h *1410(1 |
  1
):-+:' {rn rn {rn {nlh {njg |
  1
,+->687+r<*-): {rn rn {rn o rno rnqjooooooooooooook rn o o V V |
  1
):-+:' {rn rn {rn {nmk {njf |
  1
,+->687+r<*-): {rn rn {rn o rno nqjooooooooooooook n o o V V |
  1
/061+ {rn rn {rn rkoqooooooooooooooh rno nqjooooooooooooook |
  1
/061+ {rn rn {rn rkoqooooooooooooooh rno rnqjooooooooooooook |
  1
<0:;8: {rn rn {rn {nmn {nlo {nmi {njo 90-(>-; {nom {rn |
  1
<0:;8: {rn rn {rn {nmg {nmj {nmn {nki -:):-,:; {noi {rn |
  1
:;8: {rn rn {rn {njn rno {nlg no {nkj {nio 90-(>-; _h *1410(1 |
  1
:;8: {rn rn {rn {nkg rkoqooooooooooooooh {nlk koqooooooooooooooh {nmh {nin 90-(>-; _h *1410(1 |
  1
):-+:' {rn rn {rn {nmk {nim |
  1
,+->687+r<*-): {rn rn {rn koqooooooooooooooh o nqjooooooooooooook o n o V V |
  1
:;8: {rn rn {rn {nlj rkoqooooooooooooooh {njn koqooooooooooooooh {nmi {nil 90-(>-; _h *1410(1 |
  1
):-+:' {rn rn {rn {nki {nik |
  1
,+->687+r<*-): {rn rn {rn koqooooooooooooooh no o o o rn V V |
  1
,+->687+r<*-): {rn rn {rn rkoqooooooooooooooh o rnqjooooooooooooook o n o V V |
  1
,+->687+r<*-): {rn rn {rn rkoqooooooooooooooh o nqjooooooooooooook o rn o V V |
  1
/061+ {rn rn {rn rkoqooooooooooooooh no nqjooooooooooooook |
  1
/061+ {rn rn {rn rkoqooooooooooooooh no rnqjooooooooooooook |
  1
,+->687+r<*-): {rn rn {rn koqooooooooooooooh rno o o o rn V V |
  1
/061+ {rn rn {rn koqooooooooooooooh rno rnqjooooooooooooook |
  1
/061+ {rn rn {rn koqooooooooooooooh rno nqjooooooooooooook |
  1
,+->687+r<*-): {rn rn {rn koqooooooooooooooh o rnqjooooooooooooook o rn o V V |
  1
,+->687+r<*-): {rn rn {rn o no nqjooooooooooooook rn o o V V |
  1
/061+ {rn rn {rn koqooooooooooooooh no nqjooooooooooooook |
  1
,+->687+r<*-): {rn rn {rn o no rnqjooooooooooooook n o o V V |
  1
/061+ {rn rn {rn koqooooooooooooooh no rnqjooooooooooooook |
  1
Z1;r09r^ \VLr;>+> 
  0
3DSOLID
  5
4B
102
{ACAD_XDICTIONARY
360
CE
102
}
330
1F
100
AcDbEntity
  8
0
  6
Durchgehend
 62
     7
370
     0
100
AcDbModelerGeometry
 70
     1
  1
mogoo nij m o 
  1
_ll P/:1 [:,681 ^ 336>1<: ^ \VL ]*63;:- _nk ^ \VL mogqoo QK _mk L>+ R>- of nkekfemh monl 
  1
n fqfffffffffffffffj:rooh n:rono 
  1
>,27:>;:- {rn rn _nm mogqoqkqhoof |
  1
=0;& {rn rn {rn {m {rn {l |
  1
3*2/ {rn rn {rn {rn {k {n |
  1
+->1,90-2 {rn rn n o o o n o o o n koqoooooooooooookl rnqj noqooooooooooooook n 10@-0+>+: 10@-:93:<+ 10@,7:>- |
  1
,7:33 {rn rn {rn {rn {rn {j {rn {m |
  1
9><: {rn rn {rn {i {h {k {rn {g -:):-,:; ,6183: |
  1
9><: {rn rn {rn {f {no {k {rn {nn -:):-,:; ,6183: |
  1
300/ {rn rn {rn {nm {nl {j |
  1
<01:r,*-9><: {rn rn {rn rloqooooooooooooohn rnqjooooooooooooong mqgkmnhofklokokooh:ronk iqnmlolnhifnnnggil:ronh n lqhkfnjngokjjjlkli:roll nqlhhigmnkgojonhkk:roni o rmqmj n V V o n mqmj 90-(>-; V V V V |
  1
9><: {rn rn {rn {nk {nj {k {rn {ni -:):-,:; ,6183: |
  1
300/ {rn rn {rn {nh {ng {i |
  1
<01:r,*-9><: {rn rn {rn rnoqooooooooooooohn rnqjoooooooooooooli lqonfgoiimifgokmjg:ronk iqnmlolnhifnnnggil:ronh n lqhkfnjngokjjjlkli:roll nqlhhigmnkgojonhkk:roni o rmqmj n V V o n mqmj 90-(>-; V V V V |
  1
300/ {rn rn {rn {rn {nf {j |
  1
<0:;8: {rn rn {rn {nl {nl {mo {mn -:):-,:; {h {rn |
  1
9><: {rn rn {rn {mm {ml {k {rn {mk -:):-,:; ,6183: |
  1
300/ {rn rn {rn {mj {mi {f |
  1
<01:r,*-9><: {rn rn {rn fqfffffffffffffmgf rnqjooooooooooooong mqkgigffjhjnioljoh:ronk iqnmlolnhifnnnggil:ronh n lqhkfnjngokjjjlkli:roll nqlhhigmnkgojonhkk:roni o rmqmj n V V o n mqmj 90-(>-; V V V V |
  1
300/ {rn rn {rn {rn {mh {i |
  1
<0:;8: {rn rn {rn {ng {ng {mg {mf -:):-,:; {no {rn |
  1
<0:;8: {rn rn {rn {nf {nf {lo {ln -:):-,:; {nm {rn |
  1
<0:;8: {rn rn {rn {mo {mo {nl {mn 90-(>-; {lm {rn |
  1
:;8: {rn rn {rn {ll rlqnknjfmijljgfhfln {ll lqnknjfmijljgfhfln {mo {lk 90-(>-; _h *1410(1 |
  1
9><: {lj rn {rn {li {lh {k {rn {lg 90-(>-; ,6183: |
  1
300/ {rn rn {rn {lf {ko {nk |
  1
<01:r,*-9><: {rn rn {rn mfqfffffffffffffmf rnqjoooooooooooooli mqgkmnhofklokokooh:ronk iqnmlolnhifnnnggil:ronh n lqhkfnjngokjjjlkli:roll nqlhhigmnkgojonhkk:roni o rmqmj n V V o n mqmj 90-(>-; V V V V |
  1
300/ {rn rn {rn {rn {kn {f |
  1
<0:;8: {rn rn {rn {mi {mi {km {kl -:):-,:; {nj {rn |
  1
<0:;8: {rn rn {rn {mh {mh {kk {kj -:):-,:; {nh {rn |
  1
<0:;8: {rn rn {rn {mg {mg {ng {mf 90-(>-; {ki {rn |
  1
:;8: {rn rn {rn {kh rlqnknjfmijljgfhfln {kh lqnknjfmijljgfhfln {mg {kg 90-(>-; _h *1410(1 |
  1
<0:;8: {rn rn {rn {lo {lo {nf {ln 90-(>-; {kf {rn |
  1
:;8: {rn rn {rn {jo iqnmlolnhifnnnggil:ronh {jo iqmglngjlohnhfjgim {lo {jn 90-(>-; _h *1410(1 |
  1
300/ {rn rn {rn {ki {mo {jm |
  1
):-+:' {rn rn {rn {mn {jl |
  1
:336/,:r<*-): {rn rn {rn rloqooooooooooooohn nqjooooooooooooong mqgkmnhofklokokooh:ronk o rn o nqlhhigmnkgojonhkk:roni o rmqmj n V V |
  1
,+-618@>++-6=r1>2:@>++-6=r8:1r>++-6= {rn rn {rn {rn {mm <0/& 4::/@4:/+ 6810-: <0/& _nn 3(@2>+:-6>3 _ml R:+>33CW:33:, ^ 3*2616*2 |
  1
9><: {jk rn {rn {jj {ji {k {rn {jh -:):-,:; ,6183: |
  1
300/ {rn rn {rn {rn {jg {mm |
  1
/3>1:r,*-9><: {rn rn {rn o o noqoooooooooooooom o o n n o o 90-(>-;@) V V V V |
  1
300/ {rn rn {rn {rn {jf {nk |
  1
<0:;8: {rn rn {rn {ko {ko {io {in -:):-,:; {ml {rn |
  1
<0:;8: {rn rn {rn {kn {kn {im {il -:):-,:; {mj {rn |
  1
<0:;8: {rn rn {rn {km {km {mi {kl 90-(>-; {ik {rn |
  1
:;8: {rn rn {rn {ij rlqnknjfmijljgfhfln {ij lqnknjfmijljgfhfln {km {ii 90-(>-; _h *1410(1 |
  1
<0:;8: {rn rn {rn {kk {kk {mh {kj 90-(>-; {ih {rn |
  1
:;8: {rn rn {rn {ig iqnmlolnhifnnnggil:ronh {ig iqmglngjlohnhfjgim {kk {if 90-(>-; _h *1410(1 |
  1
300/ {rn rn {rn {ik {mg {jm |
  1
):-+:' {rn rn {rn {mf {ho |
  1
:336/,:r<*-): {rn rn {rn rnoqooooooooooooohn nqjooooooooooooook lqonfgoiimifgokmjg:ronk o rn o nqlhhigmnkgojonhkk:roni o rmqmj n V V |
  1
300/ {rn rn {rn {ih {lo {jj |
  1
):-+:' {rn rn {rn {ln {hn |
  1
:336/,:r<*-): {rn rn {rn rloqooooooooooooohn rnqkfffffffffffffgm mqgkmnhofklokokooh:ronk o n o nqlhhigmnkgojonhkk:roni o rmqmj n V V |
  1
9><: {hm rn {rn {hl {lm {k {rn {hk -:):-,:; ,6183: |
  1
/061+ {rn rn {rn rloqooooooooooooohn nqjooooooooooooong mqmjooooooooooomgk |
  1
,+-618@>++-6=r1>2:@>++-6=r8:1r>++-6= {rn rn {rn {rn {li <0/& 4::/@4:/+ 6810-: <0/& _nn 3(@2>+:-6>3 _ml R:+>33CW:33:, ^ 3*2616*2 |
  1
9><: {hj rn {rn {hi {kf {k {rn {hh -:):-,:; ,6183: |
  1
300/ {rn rn {rn {rn {hg {li |
  1
/3>1:r,*-9><: {rn rn {rn o o rnoqoooooooooooooom o o n n o o 90-(>-;@) V V V V |
  1
<0:;8: {rn rn {rn {hf {go {gn {gm 90-(>-; {lh {rn |
  1
<0:;8: {rn rn {rn {jf {jf {gl {gk -:):-,:; {lf {rn |
  1
<0:;8: {rn rn {rn {io {io {ko {in 90-(>-; {gj {rn |
  1
:;8: {rn rn {rn {gi rlqnknjfmijljgfhfln {gi lqnknjfmijljgfhfln {io {gh 90-(>-; _h *1410(1 |
  1
<0:;8: {rn rn {rn {im {im {kn {il 90-(>-; {gg {rn |
  1
:;8: {rn rn {rn {gf iqnmlolnhifnnnggil:ronh {gf iqmglngjlohnhfjgim {im {fo 90-(>-; _h *1410(1 |
  1
300/ {rn rn {rn {gj {km {jm |
  1
):-+:' {rn rn {rn {kl {fn |
  1
:336/,:r<*-): {rn rn {rn fqfffffffffffffmgf nqkffffffffffffffi mqkgigffjhjnioljoh:ronk o rn o nqlhhigmnkgojonhkk:roni o rmqmj n V V |
  1
300/ {rn rn {rn {gg {kk {jj |
  1
):-+:' {rn rn {rn {kj {fm |
  1
:336/,:r<*-): {rn rn {rn rnoqooooooooooooohn rnqkffffffffffffffl lqonfgoiimifgokmjg:ronk o n o nqlhhigmnkgojonhkk:roni o rmqmj n V V |
  1
/061+ {rn rn {rn rnoqooooooooooooohn nqjooooooooooooook mqmjooooooooooolom |
  1
/061+ {rn rn {rn rloqooooooooooooohn rnqjooooooooooooong rmqmkfffffffffffhni |
  1
,+-618@>++-6=r1>2:@>++-6=r8:1r>++-6= {rn rn {rn {rn {jm <0/& 4::/@4:/+ 6810-: <0/& _nn 3(@2>+:-6>3 _ml R:+>33CW:33:, ^ 3*2616*2 |
  1
9><: {fl rn {rn {rn {fk {k {rn {fj -:):-,:; ,6183: |
  1
/3>1:r,*-9><: {rn rn {rn o nqj o o rn o o o rn 90-(>-;@) V V V V |
  1
,+-618@>++-6=r1>2:@>++-6=r8:1r>++-6= {rn rn {rn {rn {jj <0/& 4::/@4:/+ 6810-: <0/& _nn 3(@2>+:-6>3 _ml R:+>33CW:33:, ^ 3*2616*2 |
  1
9><: {fi rn {rn {jm {fh {k {rn {fg -:):-,:; ,6183: |
  1
/3>1:r,*-9><: {rn rn {rn o rnqj o o n o o o n 90-(>-;@) V V V V |
  1
<0:;8: {rn rn {rn {ff {noo {non {nom 90-(>-; {ji {rn |
  1
<0:;8: {rn rn {rn {nol {jg {nok {noj 90-(>-; {lh {rn |
  1
<0:;8: {rn rn {rn {jg {nol {noi {noh 90-(>-; {lh {rn |
  1
<0:;8: {rn rn {rn {nog {nof {jg {gm -:):-,:; {fk {rn |
  1
:;8: {rn rn {rn {nno rnqj {nnn nqj {gn {nnm 90-(>-; _h *1410(1 |
  1
<0:;8: {rn rn {rn {gl {gl {jf {gk 90-(>-; {nnl {rn |
  1
:;8: {rn rn {rn {nnk iqnmlolnhifnnnggil:ronh {nnk iqmglngjlohnhfjgim {gl {nnj 90-(>-; _h *1410(1 |
  1
300/ {rn rn {rn {nni {io {jm |
  1
):-+:' {rn rn {rn {in {nnh |
  1
:336/,:r<*-): {rn rn {rn mfqfffffffffffffmf nqkfffffffffffffgm mqgkmnhofklokokooh:ronk o rn o nqlhhigmnkgojonhkk:roni o rmqmj n V V |
  1
300/ {rn rn {rn {nnl {im {jj |
  1
):-+:' {rn rn {rn {il {nng |
  1
:336/,:r<*-): {rn rn {rn fqfffffffffffffmgf rnqjooooooooooooooh mqkgigffjhjnioljoh:ronk o n o nqlhhigmnkgojonhkk:roni o rmqmj n V V |
  1
/061+ {rn rn {rn fqfffffffffffffmgf nqkffffffffffffffi mqmjooooooooooomkf |
  1
/061+ {rn rn {rn rnoqooooooooooooohn rnqjoooooooooooooli rmqmkfffffffffffifg |
  1
,+-618@>++-6=r1>2:@>++-6=r8:1r>++-6= {rn rn {rn {rn {hl <0/& 4::/@4:/+ 6810-: <0/& _nn 3(@2>+:-6>3 _ml R:+>33CW:33:, ^ 3*2616*2 |
  1
300/ {rn rn {rn {rn {nog {hl |
  1
/3>1:r,*-9><: {rn rn {rn koqooooooooooooooh o o rn o o o o n 90-(>-;@) V V V V |
  1
,+-618@>++-6=r1>2:@>++-6=r8:1r>++-6= {rn rn {rn {rn {hi <0/& 4::/@4:/+ 6810-: <0/& _nn 3(@2>+:-6>3 _ml R:+>33CW:33:, ^ 3*2616*2 |
  1
300/ {rn rn {rn {rn {nnf {hi |
  1
/3>1:r,*-9><: {rn rn {rn rkoqooooooooooooooh o o n o o o o rn 90-(>-;@) V V V V |
  1
<0:;8: {rn rn {rn {nmo {hg {nmn {nmm 90-(>-; {ji {rn |
  1
<0:;8: {rn rn {rn {hg {nmo {nml {nmk 90-(>-; {ji {rn |
  1
<0:;8: {rn rn {rn {nof {nog {hg {nom -:):-,:; {fk {rn |
  1
:;8: {rn rn {rn {nmj rnqj {nmi nqj {non {nmh 90-(>-; _h *1410(1 |
  1
<0:;8: {rn rn {rn {go {hf {nmg {nmf 90-(>-; {lh {rn |
  1
<0:;8: {rn rn {rn {nlo {nln {hf {noj -:):-,:; {nni {rn |
  1
:;8: {rn rn {rn {nnn rkoqooooooooooooooh {nlm koqooooooooooooooh {nok {nll 90-(>-; _h *1410(1 |
  1
<0:;8: {rn rn {rn {nlk {nlj {go {noh -:):-,:; {nli {rn |
  1
:;8: {rn rn {rn {nlh rkoqooooooooooooooh {nno koqooooooooooooooh {noi {nlg 90-(>-; _h *1410(1 |
  1
<0:;8: {rn rn {rn {non {gn {nlj {nlf 90-(>-; {fk {rn |
  1
<0:;8: {rn rn {rn {gn {non {nlo {nko -:):-,:; {fk {rn |
  1
):-+:' {rn rn {rn {gm {nkn |
  1
):-+:' {rn rn {rn {gm {nkm |
  1
,+->687+r<*-): {rn rn {rn koqooooooooooooooh o noqoooooooooooooom o n o V V |
  1
300/ {rn rn {rn {nli {gl {jj |
  1
):-+:' {rn rn {rn {gk {nkl |
  1
:336/,:r<*-): {rn rn {rn mfqfffffffffffffmf rnqjooooooooooooong mqgkmnhofklokokooh:ronk o n o nqlhhigmnkgojonhkk:roni o rmqmj n V V |
  1
300/ {rn rn {rn {rn {nlo {jm |
  1
/061+ {rn rn {rn mfqfffffffffffffmf nqkfffffffffffffgm mqmjooooooooooomgk |
  1
/061+ {rn rn {rn fqfffffffffffffmgf rnqjooooooooooooong rmqmkfffffffffffhjn |
  1
<0:;8: {rn rn {rn {nkk {nmg {nln {nkj 90-(>-; {fh {rn |
  1
<0:;8: {rn rn {rn {noo {ff {nkk {nki 90-(>-; {ji {rn |
  1
<0:;8: {rn rn {rn {nlj {nlk {ff {nmm -:):-,:; {nli {rn |
  1
:;8: {rn rn {rn {nmi rkoqooooooooooooooh {nkh koqooooooooooooooh {nmn {nkg 90-(>-; _h *1410(1 |
  1
<0:;8: {rn rn {rn {nln {nlo {noo {nmk -:):-,:; {nni {rn |
  1
:;8: {rn rn {rn {nkf rkoqooooooooooooooh {nmj koqooooooooooooooh {nml {njo 90-(>-; _h *1410(1 |
  1
):-+:' {rn rn {rn {nom {njn |
  1
):-+:' {rn rn {rn {nlf {njm |
  1
,+->687+r<*-): {rn rn {rn koqooooooooooooooh o rnoqoooooooooooooom o rn o V V |
  1
<0:;8: {rn rn {rn {nnf {njl {nol {nmf -:):-,:; {fh {rn |
  1
:;8: {rn rn {rn {nlm rnqj {nlh nqj {nmg {njk 90-(>-; _h *1410(1 |
  1
<0:;8: {rn rn {rn {nml {nok {nof {nko 90-(>-; {nni {rn |
  1
<0:;8: {rn rn {rn {nok {nml {nnf {nkj -:):-,:; {nni {rn |
  1
):-+:' {rn rn {rn {noj {njj |
  1
,+->687+r<*-): {rn rn {rn o nqj noqoooooooooooooom rn o o V V |
  1
<0:;8: {rn rn {rn {nmn {noi {njl {nji 90-(>-; {nli {rn |
  1
<0:;8: {rn rn {rn {noi {nmn {nog {nlf -:):-,:; {nli {rn |
  1
300/ {rn rn {rn {rn {nlk {jj |
  1
):-+:' {rn rn {rn {nmf {njh |
  1
,+->687+r<*-): {rn rn {rn o rnqj noqoooooooooooooom n o o V V |
  1
:;8: {rn rn {rn {nno rnoqoooooooooooooom {nmi noqoooooooooooooom {nog {njg 90-(>-; _h *1410(1 |
  1
:;8: {rn rn {rn {nnn rnoqoooooooooooooom {nmj noqoooooooooooooom {nof {njf 90-(>-; _h *1410(1 |
  1
/061+ {rn rn {rn koqooooooooooooooh rnqj noqoooooooooooooom |
  1
/061+ {rn rn {rn koqooooooooooooooh nqj noqoooooooooooooom |
  1
/061+ {rn rn {rn mfqfffffffffffffmf rnqjoooooooooooooli rmqmkfffffffffffhni |
  1
<0:;8: {rn rn {rn {njl {nnf {nmo {nki -:):-,:; {fh {rn |
  1
:;8: {rn rn {rn {nlm rnoqoooooooooooooom {nkf noqoooooooooooooom {nln {nio 90-(>-; _h *1410(1 |
  1
:;8: {rn rn {rn {nkh rnqj {nkf nqj {nkk {nin 90-(>-; _h *1410(1 |
  1
):-+:' {rn rn {rn {nki {nim |
  1
,+->687+r<*-): {rn rn {rn o rnqj rnoqoooooooooooooom rn o o V V |
  1
):-+:' {rn rn {rn {nmk {nil |
  1
,+->687+r<*-): {rn rn {rn o nqj rnoqoooooooooooooom n o o V V |
  1
/061+ {rn rn {rn koqooooooooooooooh nqj rnoqoooooooooooooom |
  1
/061+ {rn rn {rn koqooooooooooooooh rnqj rnoqoooooooooooooom |
  1
<0:;8: {rn rn {rn {nmg {nkk {nlk {nji -:):-,:; {fh {rn |
  1
,+->687+r<*-): {rn rn {rn rkoqooooooooooooooh o noqoooooooooooooom o rn o V V |
  1
/061+ {rn rn {rn rkoqooooooooooooooh nqj noqoooooooooooooom |
  1
:;8: {rn rn {rn {nlh rnoqoooooooooooooom {nkh noqoooooooooooooom {njl {nik 90-(>-; _h *1410(1 |
  1
/061+ {rn rn {rn rkoqooooooooooooooh rnqj noqoooooooooooooom |
  1
,+->687+r<*-): {rn rn {rn koqooooooooooooooh rnqj o o o rn V V |
  1
,+->687+r<*-): {rn rn {rn koqooooooooooooooh nqj o o o rn V V |
  1
,+->687+r<*-): {rn rn {rn rkoqooooooooooooooh nqj o o o rn V V |
  1
,+->687+r<*-): {rn rn {rn rkoqooooooooooooooh o rnoqoooooooooooooom o n o V V |
  1
/061+ {rn rn {rn rkoqooooooooooooooh rnqj rnoqoooooooooooooom |
  1
/061+ {rn rn {rn rkoqooooooooooooooh nqj rnoqoooooooooooooom |
  1
,+->687+r<*-): {rn rn {rn rkoqooooooooooooooh rnqj o o o rn V V |
  1
Z1;r09r^ \VLr;>+> 
  0
LIGHT
  5
4C
330
1F
100
AcDbEntity
  8
0
 62
     8
420
  8421504
 92
        8
310
0800000000000000
100
AcDbLight
 90
        1
  1

 70
     2
290
     1
 63
     7
421
 16777215
291
     0
 40
1.0
 10
-19.16496580927729
 20
-19.16496580927729
 30
9.16496580927724
 11
1.0
 21
1.0
 31
1.0
 72
     0
292
     0
 41
1.0
 42
10.0
 50
45.0
 51
50.0
293
     1
 73
     0
 91
      256
280
     1
1001
ACAD
1000
AcDbSavedByObjectVersion
1070
     0
  0
LIGHT
  5
4D
330
1F
100
AcDbEntity
  8
0
 62
     8
420
  8421504
 92
        8
310
0800000000000000
100
AcDbLight
 90
        1
  1

 70
     2
290
     1
 63
     7
421
 16777215
291
     0
 40
1.0
 10
30.83503419072287
 20
-69.16496580927729
 30
9.164965809277385
 11
1.0
 21
1.0
 31
1.0
 72
     0
292
     0
 41
1.0
 42
10.0
 50
45.0
 51
50.0
293
     1
 73
     0
 91
      256
280
     1
1001
ACAD
1000
AcDbSavedByObjectVersion
1070
     0
  0
LIGHT
  5
4E
330
1F
100
AcDbEntity
  8
0
 62
     8
420
  8421504
 92
        8
310
0800000000000000
100
AcDbLight
 90
        1
  1

 70
     2
290
     1
 63
     7
421
 16777215
291
     0
 40
1.0
 10
4.168367524055961
 20
4.168367524055961
 30
55.83163247594394
 11
1.0
 21
1.0
 31
1.0
 72
     0
292
     0
 41
1.0
 42
10.0
 50
45.0
 51
50.0
293
     1
 73
     0
 91
      256
280
     1
1001
ACAD
1000
AcDbSavedByObjectVersion
1070
     0
  0
LIGHT
  5
4F
330
1F
100
AcDbEntity
  8
0
 62
     8
420
  8421504
 92
        8
310
0800000000000000
100
AcDbLight
 90
        1
  1

 70
     2
290
     1
 63
     7
421
 16777215
291
     0
 40
1.0
 10
54.16836752405612
 20
-45.83163247594404
 30
55.83163247594408
 11
1.0
 21
1.0
 31
1.0
 72
     0
292
     0
 41
1.0
 42
10.0
 50
45.0
 51
50.0
293
     1
 73
     0
 91
      256
280
     1
1001
ACAD
1000
AcDbSavedByObjectVersion
1070
     0
  0
INSERT
  5
91
330
1F
100
AcDbEntity
  8
0
 60
     1
100
AcDbBlockReference
 66
     1
  2
OVERHEAD
 10
0.0
 20
0.0
 30
0.0
1001
AVE_RENDER
1002
{
1070
     0
1000
LIGHT_0
1011
1.0
1021
0.0
1031
0.0
1041
1.0
1010
0.5019607843137255
1020
0.5019607843137255
1030
0.5019607843137255
1002
{
1070
     1
1070
     0
1040
0.0
1040
0.0
1040
3.0
1002
}
1002
{
1070
     9
1070
    21
1070
    15
1070
     0
1040
37.62
1040
122.37
1002
}
1002
}
1001
TCAD
1000
TCW_LIGTH
1002
{
1070
     1
1002
}
  0
ATTRIB
  5
93
330
91
100
AcDbEntity
  8
ASHADE
  6
Continuous
 62
     1
420
 16711680
100
AcDbText
 10
-0.5571428571428572
 20
-0.1
 30
0.0
 40
0.2
  1
LIGHT_0
  7
ASHADE
 72
     1
 11
0.0
 21
-0.1
 31
0.0
100
AcDbAttribute
  2
SNAME
 70
     0
  0
ATTRIB
  5
94
330
91
100
AcDbEntity
  8
ASHADE
  6
Continuous
 62
     7
 60
     1
100
AcDbText
 10
0.0
 20
0.0
 30
0.0
 40
0.01
  1

100
AcDbAttribute
  2
GNAME
 70
     0
  0
ATTRIB
  5
95
330
91
100
AcDbEntity
  8
ASHADE
  6
Continuous
 62
     7
 60
     1
100
AcDbText
 10
0.0
 20
0.0
 30
0.0
 40
0.01
  1

100
AcDbAttribute
  2
LAX
 70
     0
  0
ATTRIB
  5
96
330
91
100
AcDbEntity
  8
ASHADE
  6
Continuous
 62
     7
 60
     1
100
AcDbText
 10
0.0
 20
0.0
 30
0.0
 40
0.01
  1

100
AcDbAttribute
  2
LAY
 70
     0
  0
ATTRIB
  5
97
330
91
100
AcDbEntity
  8
ASHADE
  6
Continuous
 62
     7
 60
     1
100
AcDbText
 10
0.0
 20
0.0
 30
0.0
 40
0.01
  1

100
AcDbAttribute
  2
LAZ
 70
     0
  0
ATTRIB
  5
98
330
91
100
AcDbEntity
  8
ASHADE
  6
Continuous
 62
     7
 60
     1
100
AcDbText
 10
0.0
 20
0.0
 30
0.0
 40
0.01
  1
1
100
AcDbAttribute
  2
INTENSITY
 70
     0
  0
ATTRIB
  5
99
330
91
100
AcDbEntity
  8
ASHADE
  6
Continuous
 62
     7
 60
     1
100
AcDbText
 10
0.0
 20
0.0
 30
0.0
 40
0.01
  1
1,1,1
100
AcDbAttribute
  2
COLOR
 70
     0
  0
ATTRIB
  5
9A
330
91
100
AcDbEntity
  8
ASHADE
  6
Continuous
 62
     7
 60
     1
100
AcDbText
 10
0.0
 20
0.0
 30
0.0
 40
0.01
  1
0
100
AcDbAttribute
  2
CONEA
 70
     0
  0
ATTRIB
  5
9B
330
91
100
AcDbEntity
  8
ASHADE
  6
Continuous
 62
     7
 60
     1
100
AcDbText
 10
0.0
 20
0.0
 30
0.0
 40
0.01
  1
-1
100
AcDbAttribute
  2
CONED
 70
     0
  0
ATTRIB
  5
9C
330
91
100
AcDbEntity
  8
ASHADE
  6
Continuous
 62
     7
 60
     1
100
AcDbText
 10
0.0
 20
0.0
 30
0.0
 40
0.01
  1
-1
100
AcDbAttribute
  2
BEAMD
 70
     0
  0
SEQEND
  5
9D
330
91
100
AcDbEntity
  8
0
 60
     1
  0
INSERT
  5
9E
330
1F
100
AcDbEntity
  8
0
 60
     1
100
AcDbBlockReference
 66
     1
  2
OVERHEAD
 10
0.0
 20
0.0
 30
0.0
1001
AVE_RENDER
1002
{
1070
     0
1000
LIGHT_1
1011
1.0
1021
0.0
1031
0.0
1041
1.0
1010
0.2509803921568627
1020
0.2509803921568627
1030
0.2509803921568627
1002
{
1070
     1
1070
     0
1040
0.0
1040
0.0
1040
3.0
1002
}
1002
{
1070
     9
1070
    21
1070
    15
1070
     0
1040
37.62
1040
122.37
1002
}
1002
}
1001
TCAD
1000
TCW_LIGTH
1002
{
1070
     1
1002
}
  0
ATTRIB
  5
9F
330
9E
100
AcDbEntity
  8
ASHADE
  6
Continuous
 62
     1
420
 16711680
100
AcDbText
 10
-0.5285714285714286
 20
-0.1
 30
0.0
 40
0.2
  1
LIGHT_1
  7
ASHADE
 72
     1
 11
0.0
 21
-0.1
 31
0.0
100
AcDbAttribute
  2
SNAME
 70
     0
  0
ATTRIB
  5
A0
330
9E
100
AcDbEntity
  8
ASHADE
  6
Continuous
 62
     7
 60
     1
100
AcDbText
 10
0.0
 20
0.0
 30
0.0
 40
0.01
  1

100
AcDbAttribute
  2
GNAME
 70
     0
  0
ATTRIB
  5
A1
330
9E
100
AcDbEntity
  8
ASHADE
  6
Continuous
 62
     7
 60
     1
100
AcDbText
 10
0.0
 20
0.0
 30
0.0
 40
0.01
  1

100
AcDbAttribute
  2
LAX
 70
     0
  0
ATTRIB
  5
A2
330
9E
100
AcDbEntity
  8
ASHADE
  6
Continuous
 62
     7
 60
     1
100
AcDbText
 10
0.0
 20
0.0
 30
0.0
 40
0.01
  1

100
AcDbAttribute
  2
LAY
 70
     0
  0
ATTRIB
  5
A3
330
9E
100
AcDbEntity
  8
ASHADE
  6
Continuous
 62
     7
 60
     1
100
AcDbText
 10
0.0
 20
0.0
 30
0.0
 40
0.01
  1

100
AcDbAttribute
  2
LAZ
 70
     0
  0
ATTRIB
  5
A4
330
9E
100
AcDbEntity
  8
ASHADE
  6
Continuous
 62
     7
 60
     1
100
AcDbText
 10
0.0
 20
0.0
 30
0.0
 40
0.01
  1
1
100
AcDbAttribute
  2
INTENSITY
 70
     0
  0
ATTRIB
  5
A5
330
9E
100
AcDbEntity
  8
ASHADE
  6
Continuous
 62
     7
 60
     1
100
AcDbText
 10
0.0
 20
0.0
 30
0.0
 40
0.01
  1
1,1,1
100
AcDbAttribute
  2
COLOR
 70
     0
  0
ATTRIB
  5
A6
330
9E
100
AcDbEntity
  8
ASHADE
  6
Continuous
 62
     7
 60
     1
100
AcDbText
 10
0.0
 20
0.0
 30
0.0
 40
0.01
  1
0
100
AcDbAttribute
  2
CONEA
 70
     0
  0
ATTRIB
  5
A7
330
9E
100
AcDbEntity
  8
ASHADE
  6
Continuous
 62
     7
 60
     1
100
AcDbText
 10
0.0
 20
0.0
 30
0.0
 40
0.01
  1
-1
100
AcDbAttribute
  2
CONED
 70
     0
  0
ATTRIB
  5
A8
330
9E
100
AcDbEntity
  8
ASHADE
  6
Continuous
 62
     7
 60
     1
100
AcDbText
 10
0.0
 20
0.0
 30
0.0
 40
0.01
  1
-1
100
AcDbAttribute
  2
BEAMD
 70
     0
  0
SEQEND
  5
A9
330
9E
100
AcDbEntity
  8
0
 60
     1
  0
INSERT
  5
BE
330
1F
100
AcDbEntity
  8
0
 60
     1
100
AcDbBlockReference
 66
     1
  2
DIRECT
 10
62.93835056310668
 20
693.3391741883993
 30
-57.1515840913107
 41
0.9999999999999998
 42
0.9999999999999999
210
-0.1605869766773834
220
0.02686863812111833
230
0.9866559173324478
1001
AVE_RENDER
1002
{
1070
     0
1000
LIGHT_2
1011
716.3333320360102
1021
-183.6666664496039
1031
63.66666644960596
1041
1.0
1010
0.5019607843137255
1020
0.5019607843137255
1030
0.5019607843137255
1002
{
1070
     1
1070
     0
1040
0.0
1040
0.0
1040
3.0
1002
}
1002
{
1070
     9
1070
    21
1070
    15
1070
     0
1040
37.62
1040
122.37
1002
}
1002
}
1001
TCAD
1000
TCW_LIGTH
1002
{
1070
     0
1002
}
  0
ATTRIB
  5
BF
330
BE
100
AcDbEntity
  8
ASHADE
  6
Continuous
 62
     1
420
 16711680
100
AcDbText
 10
62.38120770596385
 20
693.2391741883994
 30
-57.15158409131069
 40
0.2
  1
LIGHT_2
  7
ASHADE
 72
     1
 11
62.93835056310671
 21
693.2391741883993
 31
-57.15158409131069
210
-0.1605869766773833
220
0.02686863812111833
230
0.9866559173324476
100
AcDbAttribute
  2
SNAME
 70
     0
  0
ATTRIB
  5
C0
330
BE
100
AcDbEntity
  8
ASHADE
  6
Continuous
 62
     7
 60
     1
100
AcDbText
 10
62.93835056310672
 20
693.3391741883993
 30
0.0
 40
0.01
  1

210
-0.1605869766773833
220
0.02686863812111833
230
0.9866559173324476
100
AcDbAttribute
  2
GNAME
 70
     0
  0
ATTRIB
  5
C1
330
BE
100
AcDbEntity
  8
ASHADE
  6
Continuous
 62
     7
 60
     1
100
AcDbText
 10
62.93835056310672
 20
693.3391741883993
 30
0.0
 40
0.01
  1

210
-0.1605869766773833
220
0.02686863812111833
230
0.9866559173324476
100
AcDbAttribute
  2
LAX
 70
     0
  0
ATTRIB
  5
C2
330
BE
100
AcDbEntity
  8
ASHADE
  6
Continuous
 62
     7
 60
     1
100
AcDbText
 10
62.93835056310672
 20
693.3391741883993
 30
0.0
 40
0.01
  1

210
-0.1605869766773833
220
0.02686863812111833
230
0.9866559173324476
100
AcDbAttribute
  2
LAY
 70
     0
  0
ATTRIB
  5
C3
330
BE
100
AcDbEntity
  8
ASHADE
  6
Continuous
 62
     7
 60
     1
100
AcDbText
 10
62.93835056310672
 20
693.3391741883993
 30
0.0
 40
0.01
  1

210
-0.1605869766773833
220
0.02686863812111833
230
0.9866559173324476
100
AcDbAttribute
  2
LAZ
 70
     0
  0
ATTRIB
  5
C4
330
BE
100
AcDbEntity
  8
ASHADE
  6
Continuous
 62
     7
 60
     1
100
AcDbText
 10
62.93835056310672
 20
693.3391741883993
 30
0.0
 40
0.01
  1
1
210
-0.1605869766773833
220
0.02686863812111833
230
0.9866559173324476
100
AcDbAttribute
  2
INTENSITY
 70
     0
  0
ATTRIB
  5
C5
330
BE
100
AcDbEntity
  8
ASHADE
  6
Continuous
 62
     7
 60
     1
100
AcDbText
 10
62.93835056310672
 20
693.3391741883993
 30
0.0
 40
0.01
  1
1,1,1
210
-0.1605869766773833
220
0.02686863812111833
230
0.9866559173324476
100
AcDbAttribute
  2
COLOR
 70
     0
  0
ATTRIB
  5
C6
330
BE
100
AcDbEntity
  8
ASHADE
  6
Continuous
 62
     7
 60
     1
100
AcDbText
 10
62.93835056310672
 20
693.3391741883993
 30
0.0
 40
0.01
  1
0
210
-0.1605869766773833
220
0.02686863812111833
230
0.9866559173324476
100
AcDbAttribute
  2
CONEA
 70
     0
  0
ATTRIB
  5
C7
330
BE
100
AcDbEntity
  8
ASHADE
  6
Continuous
 62
     7
 60
     1
100
AcDbText
 10
62.93835056310672
 20
693.3391741883993
 30
0.0
 40
0.01
  1
-1
210
-0.1605869766773833
220
0.02686863812111833
230
0.9866559173324476
100
AcDbAttribute
  2
CONED
 70
     0
  0
ATTRIB
  5
C8
330
BE
100
AcDbEntity
  8
ASHADE
  6
Continuous
 62
     7
 60
     1
100
AcDbText
 10
62.93835056310672
 20
693.3391741883993
 30
0.0
 40
0.01
  1
-1
210
-0.1605869766773833
220
0.02686863812111833
230
0.9866559173324476
100
AcDbAttribute
  2
BEAMD
 70
     0
  0
SEQEND
  5
C9
330
BE
100
AcDbEntity
  8
0
 60
     1
  0
LIGHT
  5
CA
330
1F
100
AcDbEntity
  8
0
 62
     8
420
  8421504
 92
        8
310
0800000000000000
100
AcDbLight
 90
        1
  1

 70
     3
290
     0
 63
     7
421
 16777215
291
     0
 40
1.0
 10
42.83333333333343
 20
-7.166666666666647
 30
7.16666666666675
 11
66.16666573787697
 21
16.16666573787689
 31
-26.16666533982382
 72
     0
292
     0
 41
1.0
 42
10.0
 50
27.0
 51
30.0
293
     1
 73
     0
 91
      256
280
     1
1001
ACAD
1000
AcDbSavedByObjectVersion
1070
     0
  0
VIEWPORT
  5
CB
330
1B
100
AcDbEntity
 67
     1
  8
0
100
AcDbViewport
 10
148.5
 20
105.0
 30
0.0
 40
297.0
 41
210.0
 68
     1
 69
     1
 12
148.5
 22
105.0
 13
0.0
 23
0.0
 14
5.0
 24
5.0
 15
5.0
 25
5.0
 16
0.0
 26
0.0
 36
1.0
 17
0.0
 27
0.0
 37
0.0
 42
50.0
 43
0.0
 44
0.0
 45
210.0
 50
0.0
 51
0.0
 72
  1000
 90
    32800
  1

281
     0
 71
     1
 74
     0
110
0.0
120
0.0
130
0.0
111
1.0
121
0.0
131
0.0
112
0.0
122
1.0
132
0.0
 79
     0
146
0.0
170
     0
  0
ENDSEC
  0
SECTION
  2
OBJECTS
  0
DICTIONARY
  5
C
330
0
100
AcDbDictionary
281
     1
  3
ACAD_GROUP
350
D
  3
ACAD_LAYOUT
350
1A
  3
ACAD_MLEADERSTYLE
350
DA
  3
ACAD_MLINESTYLE
350
17
  3
ACAD_PLOTSETTINGS
350
19
  3
ACAD_PLOTSTYLENAME
350
E
  3
ACAD_SCALELIST
350
53
  3
ACAD_TABLESTYLE
350
48
  3
ACAD_VISUALSTYLE
350
2A
  3
ACDB_RECOMPOSE_DATA
350
D9
  3
AcDbVariableDictionary
350
D4
  0
DICTIONARY
  5
CC
330
4A
100
AcDbDictionary
280
     1
281
     1
  3
ACAD_XREC_ROUNDTRIP
360
CD
  0
DICTIONARY
  5
CE
330
4B
100
AcDbDictionary
280
     1
281
     1
  3
ACAD_XREC_ROUNDTRIP
360
CF
  0
DICTIONARY
  5
D
102
{ACAD_REACTORS
330
C
102
}
330
C
100
AcDbDictionary
281
     1
  0
DICTIONARY
  5
1A
102
{ACAD_REACTORS
330
C
102
}
330
C
100
AcDbDictionary
281
     1
  3
Model
350
22
  3
Papier 1
350
1E
  0
DICTIONARY
  5
DA
102
{ACAD_REACTORS
330
C
102
}
330
C
100
AcDbDictionary
281
     1
  0
DICTIONARY
  5
17
102
{ACAD_REACTORS
330
C
102
}
330
C
100
AcDbDictionary
281
     1
  3
Standard
350
18
  0
DICTIONARY
  5
19
102
{ACAD_REACTORS
330
C
102
}
330
C
100
AcDbDictionary
281
     1
  0
ACDBDICTIONARYWDFLT
  5
E
102
{ACAD_REACTORS
330
C
102
}
330
C
100
AcDbDictionary
281
     1
  3
Normal
350
F
100
AcDbDictionaryWithDefault
340
F
  0
DICTIONARY
  5
53
102
{ACAD_REACTORS
330
C
102
}
330
C
100
AcDbDictionary
281
     1
  3
A0
350
54
  3
A1
350
55
  3
A2
350
56
  3
A3
350
57
  3
A4
350
58
  3
A5
350
59
  3
A6
350
5A
  3
A7
350
5B
  3
A8
350
5C
  3
A9
350
5D
  3
B0
350
5E
  3
B1
350
5F
  3
B2
350
60
  3
B3
350
61
  3
B4
350
62
  3
B5
350
63
  3
B6
350
64
  3
B7
350
65
  3
B8
350
66
  3
B9
350
67
  3
C0
350
68
  3
C1
350
69
  3
C2
350
6A
  3
C3
350
6B
  3
C4
350
6C
  3
C5
350
6D
  3
C6
350
6E
  3
C7
350
6F
  3
C8
350
70
  3
C9
350
71
  3
D0
350
72
  3
D1
350
73
  3
D2
350
74
  0
DICTIONARY
  5
48
102
{ACAD_REACTORS
330
C
102
}
330
C
100
AcDbDictionary
281
     1
  3
Standard
350
49
  0
DICTIONARY
  5
2A
102
{ACAD_REACTORS
330
C
102
}
330
C
100
AcDbDictionary
281
     1
  3
2dWireframe
350
2F
  3
3D Hidden
350
31
  3
3dWireframe
350
30
  3
Basic
350
32
  3
Brighten
350
36
  3
ColorChange
350
3A
  3
Conceptual
350
34
  3
Dim
350
35
  3
Facepattern
350
39
  3
Flat
350
2B
  3
FlatWithEdges
350
2C
  3
Gouraud
350
2D
  3
GouraudWithEdges
350
2E
  3
Linepattern
350
38
  3
Realistic
350
33
  3
Thicken
350
37
  0
XRECORD
  5
D9
102
{ACAD_REACTORS
330
C
102
}
330
C
100
AcDbXrecord
280
     1
 90
        1
330
49
  0
DICTIONARY
  5
D4
102
{ACAD_REACTORS
330
C
102
}
330
C
100
AcDbDictionary
281
     1
  3
CANNOSCALE
350
D5
  0
XRECORD
  5
CD
102
{ACAD_REACTORS
330
CC
102
}
330
CC
100
AcDbXrecord
280
     1
102
ACAD_SOLID_HIST
102
ACAD_SOLID_HIST1
 90
        0
102
ACAD_SOLID_HIST2
 90
       74
  0
XRECORD
  5
CF
102
{ACAD_REACTORS
330
CE
102
}
330
CE
100
AcDbXrecord
280
     1
102
ACAD_SOLID_HIST
102
ACAD_SOLID_HIST1
 90
        0
102
ACAD_SOLID_HIST2
 90
       75
  0
LAYOUT
  5
22
102
{ACAD_REACTORS
330
1A
102
}
330
1A
100
AcDbPlotSettings
  1

  2
TCAD_Plot
  4
297.00 x 210.00 MM
  6

 40
0.0
 41
0.0
 42
0.0
 43
0.0
 44
297.0
 45
210.0
 46
0.0
 47
0.0
 48
-148.5
 49
-105.0
140
148.5
141
105.0
142
1.0
143
1.0
 70
  1696
 72
     1
 73
     0
 74
     4
  7

 75
     0
 76
     0
 77
     2
 78
   300
147
2.968635789090915
148
0.0
149
0.0
100
AcDbLayout
  1
Model
 70
     1
 71
     0
 10
0.0
 20
0.0
 11
297.0
 21
210.0
 12
0.0
 22
0.0
 32
0.0
 14
0.0
 24
-20.0
 34
-0.0000000000000004
 15
80.00000000000006
 25
0.000000000000002
 35
20.00000000000001
146
0.0
 13
0.0
 23
0.0
 33
0.0
 16
1.0
 26
0.0
 36
0.0
 17
0.0
 27
1.0
 37
0.0
 76
     0
330
1F
331
29
  0
LAYOUT
  5
1E
102
{ACAD_REACTORS
330
1A
102
}
330
1A
100
AcDbPlotSettings
  1

  2
TCAD_Plot
  4
297.00 x 210.00 MM
  6

 40
0.0
 41
0.0
 42
0.0
 43
0.0
 44
297.0
 45
210.0
 46
0.0
 47
0.0
 48
0.0
 49
0.0
140
0.0
141
0.0
142
1.0
143
1.0
 70
   672
 72
     1
 73
     0
 74
     5
  7

 75
    16
 76
     0
 77
     2
 78
   300
147
1.0
148
0.0
149
0.0
100
AcDbLayout
  1
Papier 1
 70
     1
 71
     1
 10
0.0
 20
0.0
 11
0.0
 21
0.0
 12
0.0
 22
0.0
 32
0.0
 14
0.0
 24
0.0
 34
0.0
 15
0.0
 25
0.0
 35
0.0
146
0.0
 13
0.0
 23
0.0
 33
0.0
 16
1.0
 26
0.0
 36
0.0
 17
0.0
 27
1.0
 37
0.0
 76
     0
330
1B
331
CB
  0
MLINESTYLE
  5
18
102
{ACAD_REACTORS
330
17
102
}
330
17
100
AcDbMlineStyle
  2
Standard
 70
     0
  3

 62
   256
 51
90.0
 52
90.0
 71
     5
 49
0.5
 62
   256
  6
BYLAYER
 49
-0.5
 62
   256
  6
BYLAYER
 49
5.0
 62
     7
  6
BYLAYER
 49
0.0
 62
     7
  6
BYLAYER
 49
-5.0
 62
     7
  6
BYLAYER
  0
ACDBPLACEHOLDER
  5
F
102
{ACAD_REACTORS
330
E
102
}
330
E
  0
SCALE
  5
54
102
{ACAD_REACTORS
330
53
102
}
330
53
100
AcDbScale
 70
     0
300
1:1
140
1.0
141
1.0
290
     1
  0
SCALE
  5
55
102
{ACAD_REACTORS
330
53
102
}
330
53
100
AcDbScale
 70
     0
300
1:2
140
1.0
141
2.0
290
     0
  0
SCALE
  5
56
102
{ACAD_REACTORS
330
53
102
}
330
53
100
AcDbScale
 70
     0
300
1:4
140
1.0
141
4.0
290
     0
  0
SCALE
  5
57
102
{ACAD_REACTORS
330
53
102
}
330
53
100
AcDbScale
 70
     0
300
1:5
140
1.0
141
5.0
290
     0
  0
SCALE
  5
58
102
{ACAD_REACTORS
330
53
102
}
330
53
100
AcDbScale
 70
     0
300
1:8
140
1.0
141
8.0
290
     0
  0
SCALE
  5
59
102
{ACAD_REACTORS
330
53
102
}
330
53
100
AcDbScale
 70
     0
300
1:10
140
1.0
141
10.0
290
     0
  0
SCALE
  5
5A
102
{ACAD_REACTORS
330
53
102
}
330
53
100
AcDbScale
 70
     0
300
1:16
140
1.0
141
16.0
290
     0
  0
SCALE
  5
5B
102
{ACAD_REACTORS
330
53
102
}
330
53
100
AcDbScale
 70
     0
300
1:20
140
1.0
141
20.0
290
     0
  0
SCALE
  5
5C
102
{ACAD_REACTORS
330
53
102
}
330
53
100
AcDbScale
 70
     0
300
1:30
140
1.0
141
30.0
290
     0
  0
SCALE
  5
5D
102
{ACAD_REACTORS
330
53
102
}
330
53
100
AcDbScale
 70
     0
300
1:40
140
1.0
141
40.0
290
     0
  0
SCALE
  5
5E
102
{ACAD_REACTORS
330
53
102
}
330
53
100
AcDbScale
 70
     0
300
1:50
140
1.0
141
50.0
290
     0
  0
SCALE
  5
5F
102
{ACAD_REACTORS
330
53
102
}
330
53
100
AcDbScale
 70
     0
300
1:100
140
1.0
141
100.0
290
     0
  0
SCALE
  5
60
102
{ACAD_REACTORS
330
53
102
}
330
53
100
AcDbScale
 70
     0
300
2:1
140
2.0
141
1.0
290
     0
  0
SCALE
  5
61
102
{ACAD_REACTORS
330
53
102
}
330
53
100
AcDbScale
 70
     0
300
4:1
140
4.0
141
1.0
290
     0
  0
SCALE
  5
62
102
{ACAD_REACTORS
330
53
102
}
330
53
100
AcDbScale
 70
     0
300
8:1
140
8.0
141
1.0
290
     0
  0
SCALE
  5
63
102
{ACAD_REACTORS
330
53
102
}
330
53
100
AcDbScale
 70
     0
300
10:1
140
10.0
141
1.0
290
     0
  0
SCALE
  5
64
102
{ACAD_REACTORS
330
53
102
}
330
53
100
AcDbScale
 70
     0
300
100:1
140
100.0
141
1.0
290
     0
  0
SCALE
  5
65
102
{ACAD_REACTORS
330
53
102
}
330
53
100
AcDbScale
 70
     0
300
1/128" = 1'-0"
140
0.0078125
141
12.0
290
     0
  0
SCALE
  5
66
102
{ACAD_REACTORS
330
53
102
}
330
53
100
AcDbScale
 70
     0
300
1/64" = 1'-0"
140
0.015625
141
12.0
290
     0
  0
SCALE
  5
67
102
{ACAD_REACTORS
330
53
102
}
330
53
100
AcDbScale
 70
     0
300
1/32" = 1'-0"
140
0.03125
141
12.0
290
     0
  0
SCALE
  5
68
102
{ACAD_REACTORS
330
53
102
}
330
53
100
AcDbScale
 70
     0
300
1/16" = 1'-0"
140
0.0625
141
12.0
290
     0
  0
SCALE
  5
69
102
{ACAD_REACTORS
330
53
102
}
330
53
100
AcDbScale
 70
     0
300
3/32" = 1'-0"
140
0.09375
141
12.0
290
     0
  0
SCALE
  5
6A
102
{ACAD_REACTORS
330
53
102
}
330
53
100
AcDbScale
 70
     0
300
1/8" = 1'-0"
140
0.125
141
12.0
290
     0
  0
SCALE
  5
6B
102
{ACAD_REACTORS
330
53
102
}
330
53
100
AcDbScale
 70
     0
300
3/16" = 1'-0"
140
0.1875
141
12.0
290
     0
  0
SCALE
  5
6C
102
{ACAD_REACTORS
330
53
102
}
330
53
100
AcDbScale
 70
     0
300
1/4" = 1'-0"
140
0.25
141
12.0
290
     0
  0
SCALE
  5
6D
102
{ACAD_REACTORS
330
53
102
}
330
53
100
AcDbScale
 70
     0
300
3/8" = 1'-0"
140
0.375
141
12.0
290
     0
  0
SCALE
  5
6E
102
{ACAD_REACTORS
330
53
102
}
330
53
100
AcDbScale
 70
     0
300
1/2" = 1'-0"
140
0.5
141
12.0
290
     0
  0
SCALE
  5
6F
102
{ACAD_REACTORS
330
53
102
}
330
53
100
AcDbScale
 70
     0
300
3/4" = 1'-0"
140
0.75
141
12.0
290
     0
  0
SCALE
  5
70
102
{ACAD_REACTORS
330
53
102
}
330
53
100
AcDbScale
 70
     0
300
1" = 1'-0"
140
1.0
141
12.0
290
     0
  0
SCALE
  5
71
102
{ACAD_REACTORS
330
53
102
}
330
53
100
AcDbScale
 70
     0
300
1-1/2" = 1'-0"
140
1.5
141
12.0
290
     0
  0
SCALE
  5
72
102
{ACAD_REACTORS
330
53
102
}
330
53
100
AcDbScale
 70
     0
300
3" = 1'-0"
140
3.0
141
12.0
290
     0
  0
SCALE
  5
73
102
{ACAD_REACTORS
330
53
102
}
330
53
100
AcDbScale
 70
     0
300
6" = 1'-0"
140
6.0
141
12.0
290
     0
  0
SCALE
  5
74
102
{ACAD_REACTORS
330
53
102
}
330
53
100
AcDbScale
 70
     0
300
1'-0" = 1'-0"
140
12.0
141
12.0
290
     0
  0
TABLESTYLE
  5
49
102
{ACAD_REACTORS
330
48
102
}
102
{ACAD_XDICTIONARY
360
D6
102
}
330
48
100
AcDbTableStyle
  3

 70
     0
 71
     0
 40
1.666666666666667
 41
1.666666666666667
280
     0
281
     0
  7
Standard
140
3.0
170
     5
 62
     0
 63
   257
283
     0
274
    -2
284
     1
 64
     0
275
    -2
285
     1
 65
     0
276
    -2
286
     1
 66
     0
277
    -2
287
     1
 67
     0
278
    -2
288
     1
 68
     0
279
    -2
289
     1
 69
     0
  7
Standard
140
3.0
170
     5
 62
     0
 63
   257
283
     0
274
    -2
284
     1
 64
     0
275
    -2
285
     1
 65
     0
276
    -2
286
     1
 66
     0
277
    -2
287
     1
 67
     0
278
    -2
288
     1
 68
     0
279
    -2
289
     1
 69
     0
  7
Standard
140
3.0
170
     5
 62
     0
 63
   257
283
     0
274
    -2
284
     1
 64
     0
275
    -2
285
     1
 65
     0
276
    -2
286
     1
 66
     0
277
    -2
287
     1
 67
     0
278
    -2
288
     1
 68
     0
279
    -2
289
     1
 69
     0
  0
VISUALSTYLE
  5
2F
102
{ACAD_REACTORS
330
2A
102
}
330
2A
100
AcDbVisualStyle
  2
2dWireframe
 70
     4
 71
     0
 72
     2
 73
     0
 90
        0
 40
-0.6
 41
-30.0
 62
     5
 63
     7
421
 16777215
 74
     1
 91
        4
 64
     7
 65
   257
 75
     1
175
     1
 42
1.0
 92
        0
 66
   257
 43
1.0
 76
     1
 77
     6
 78
     2
 67
     7
 79
     5
170
     0
171
     0
290
     0
174
     0
 93
        1
 44
0.0
173
     0
291
     0
 45
0.0
1001
ACAD
1000
AcDbSavedByObjectVersion
1070
     0
  0
VISUALSTYLE
  5
31
102
{ACAD_REACTORS
330
2A
102
}
330
2A
100
AcDbVisualStyle
  2
3D Hidden
 70
     6
 71
     1
 72
     2
 73
     2
 90
        0
 40
-0.6
 41
-30.0
 62
     5
 63
     7
421
 16777215
 74
     2
 91
        2
 64
     7
 65
   257
 75
     2
175
     1
 42
40.0
 92
        0
 66
   257
 43
1.0
 76
     1
 77
     6
 78
     2
 67
     7
 79
     3
170
     0
171
     0
290
     0
174
     0
 93
        1
 44
0.0
173
     0
291
     0
 45
0.0
1001
ACAD
1000
AcDbSavedByObjectVersion
1070
     0
  0
VISUALSTYLE
  5
30
102
{ACAD_REACTORS
330
2A
102
}
330
2A
100
AcDbVisualStyle
  2
3dWireframe
 70
     5
 71
     0
 72
     2
 73
     0
 90
        0
 40
-0.6
 41
-30.0
 62
     5
 63
     7
421
 16777215
 74
     1
 91
        4
 64
     7
 65
   257
 75
     1
175
     1
 42
1.0
 92
        0
 66
   257
 43
1.0
 76
     1
 77
     6
 78
     2
 67
     7
 79
     5
170
     0
171
     0
290
     0
174
     0
 93
        1
 44
0.0
173
     0
291
     0
 45
0.0
1001
ACAD
1000
AcDbSavedByObjectVersion
1070
     0
  0
VISUALSTYLE
  5
32
102
{ACAD_REACTORS
330
2A
102
}
330
2A
100
AcDbVisualStyle
  2
Basic
 70
     7
 71
     1
 72
     0
 73
     1
 90
        0
 40
-0.6
 41
-30.0
 62
     5
 63
     7
421
 16777215
 74
     0
 91
        4
 64
     7
 65
   257
 75
     1
175
     1
 42
1.0
 92
        8
 66
     7
 43
1.0
 76
     1
 77
     6
 78
     2
 67
     7
 79
     5
170
     0
171
     0
290
     0
174
     0
 93
        1
 44
0.0
173
     0
291
     1
 45
0.0
1001
ACAD
1000
AcDbSavedByObjectVersion
1070
     0
  0
VISUALSTYLE
  5
36
102
{ACAD_REACTORS
330
2A
102
}
330
2A
100
AcDbVisualStyle
  2
Brighten
 70
    12
 71
     2
 72
     2
 73
     0
 90
        0
 40
-0.6
 41
-30.0
 62
     5
 63
     7
421
 16777215
 74
     1
 91
        4
 64
     7
 65
   257
 75
     1
175
     1
 42
1.0
 92
        8
 66
     7
 43
1.0
 76
     1
 77
     6
 78
     2
 67
     7
 79
     5
170
     0
171
     0
290
     0
174
     0
 93
        1
 44
50.0
173
     0
291
     1
 45
0.0
1001
ACAD
1000
AcDbSavedByObjectVersion
1070
     0
  0
VISUALSTYLE
  5
3A
102
{ACAD_REACTORS
330
2A
102
}
330
2A
100
AcDbVisualStyle
  2
ColorChange
 70
    16
 71
     2
 72
     2
 73
     3
 90
        0
 40
-0.6
 41
-30.0
 62
     5
 63
     8
421
  8421504
 74
     1
 91
        4
 64
     7
 65
   257
 75
     1
175
     1
 42
1.0
 92
        8
 66
     8
424
  8421504
 43
1.0
 76
     1
 77
     6
 78
     2
 67
     7
 79
     5
170
     0
171
     0
290
     0
174
     0
 93
        1
 44
0.0
173
     0
291
     1
 45
0.0
1001
ACAD
1000
AcDbSavedByObjectVersion
1070
     0
  0
VISUALSTYLE
  5
34
102
{ACAD_REACTORS
330
2A
102
}
330
2A
100
AcDbVisualStyle
  2
Conceptual
 70
     9
 71
     3
 72
     2
 73
     0
 90
        0
 40
-0.6
 41
-30.0
 62
     5
 63
     7
421
 16777215
 74
     2
 91
        2
 64
     7
 65
   257
 75
     1
175
     1
 42
40.0
 92
        8
 66
     7
 43
1.0
 76
     1
 77
     6
 78
     2
 67
     7
 79
     3
170
     0
171
     0
290
     0
174
     0
 93
        1
 44
0.0
173
     0
291
     0
 45
0.0
1001
ACAD
1000
AcDbSavedByObjectVersion
1070
     0
  0
VISUALSTYLE
  5
35
102
{ACAD_REACTORS
330
2A
102
}
330
2A
100
AcDbVisualStyle
  2
Dim
 70
    11
 71
     2
 72
     2
 73
     0
 90
        0
 40
-0.6
 41
-30.0
 62
     5
 63
     7
421
 16777215
 74
     1
 91
        4
 64
     7
 65
   257
 75
     1
175
     1
 42
1.0
 92
        8
 66
     7
 43
1.0
 76
     1
 77
     6
 78
     2
 67
     7
 79
     5
170
     0
171
     0
290
     0
174
     0
 93
        1
 44
-50.0
173
     0
291
     1
 45
0.0
1001
ACAD
1000
AcDbSavedByObjectVersion
1070
     0
  0
VISUALSTYLE
  5
39
102
{ACAD_REACTORS
330
2A
102
}
330
2A
100
AcDbVisualStyle
  2
Facepattern
 70
    15
 71
     2
 72
     2
 73
     0
 90
        0
 40
-0.6
 41
-30.0
 62
     5
 63
     7
421
 16777215
 74
     1
 91
        4
 64
     7
 65
   257
 75
     1
175
     1
 42
1.0
 92
        8
 66
     7
 43
1.0
 76
     1
 77
     6
 78
     2
 67
     7
 79
     5
170
     0
171
     0
290
     0
174
     0
 93
        1
 44
0.0
173
     0
291
     1
 45
0.0
1001
ACAD
1000
AcDbSavedByObjectVersion
1070
     0
  0
VISUALSTYLE
  5
2B
102
{ACAD_REACTORS
330
2A
102
}
330
2A
100
AcDbVisualStyle
  2
Flat
 70
     0
 71
     2
 72
     1
 73
     1
 90
        2
 40
-0.6
 41
30.0
 62
     5
 63
     7
421
 16777215
 74
     0
 91
        4
 64
     7
 65
   257
 75
     1
175
     1
 42
1.0
 92
        8
 66
     7
 43
1.0
 76
     1
 77
     6
 78
     2
 67
     7
 79
     5
170
     0
171
     0
290
     0
174
     0
 93
       13
 44
0.0
173
     0
291
     1
 45
0.0
1001
ACAD
1000
AcDbSavedByObjectVersion
1070
     0
  0
VISUALSTYLE
  5
2C
102
{ACAD_REACTORS
330
2A
102
}
330
2A
100
AcDbVisualStyle
  2
FlatWithEdges
 70
     1
 71
     2
 72
     1
 73
     1
 90
        2
 40
-0.6
 41
30.0
 62
     5
 63
     7
421
 16777215
 74
     1
 91
        4
 64
     7
 65
   257
 75
     1
175
     1
 42
1.0
 92
        0
 66
   257
 43
1.0
 76
     1
 77
     6
 78
     2
 67
     7
 79
     5
170
     0
171
     0
290
     0
174
     0
 93
       13
 44
0.0
173
     0
291
     1
 45
0.0
1001
ACAD
1000
AcDbSavedByObjectVersion
1070
     0
  0
VISUALSTYLE
  5
2D
102
{ACAD_REACTORS
330
2A
102
}
330
2A
100
AcDbVisualStyle
  2
Gouraud
 70
     2
 71
     2
 72
     2
 73
     1
 90
        2
 40
-0.6
 41
30.0
 62
     5
 63
     7
421
 16777215
 74
     0
 91
        4
 64
     7
 65
   257
 75
     1
175
     1
 42
1.0
 92
        0
 66
     7
 43
1.0
 76
     1
 77
     6
 78
     2
 67
     7
 79
     5
170
     0
171
     0
290
     0
174
     0
 93
       13
 44
0.0
173
     0
291
     1
 45
0.0
1001
ACAD
1000
AcDbSavedByObjectVersion
1070
     0
  0
VISUALSTYLE
  5
2E
102
{ACAD_REACTORS
330
2A
102
}
330
2A
100
AcDbVisualStyle
  2
GouraudWithEdges
 70
     3
 71
     2
 72
     2
 73
     1
 90
        2
 40
-0.6
 41
30.0
 62
     5
 63
     7
421
 16777215
 74
     1
 91
        4
 64
     7
 65
   257
 75
     1
175
     1
 42
1.0
 92
        0
 66
   257
 43
1.0
 76
     1
 77
     6
 78
     2
 67
     7
 79
     5
170
     0
171
     0
290
     0
174
     0
 93
       13
 44
0.0
173
     0
291
     1
 45
0.0
1001
ACAD
1000
AcDbSavedByObjectVersion
1070
     0
  0
VISUALSTYLE
  5
38
102
{ACAD_REACTORS
330
2A
102
}
330
2A
100
AcDbVisualStyle
  2
Linepattern
 70
    14
 71
     2
 72
     2
 73
     0
 90
        0
 40
-0.6
 41
-30.0
 62
     5
 63
     7
421
 16777215
 74
     1
 91
        4
 64
     7
 65
   257
 75
     7
175
     7
 42
1.0
 92
        8
 66
     7
 43
1.0
 76
     1
 77
     6
 78
     2
 67
     7
 79
     5
170
     0
171
     0
290
     0
174
     0
 93
        1
 44
0.0
173
     0
291
     1
 45
0.0
1001
ACAD
1000
AcDbSavedByObjectVersion
1070
     0
  0
VISUALSTYLE
  5
33
102
{ACAD_REACTORS
330
2A
102
}
330
2A
100
AcDbVisualStyle
  2
Realistic
 70
     8
 71
     2
 72
     2
 73
     0
 90
        0
 40
-0.6
 41
-30.0
 62
     5
 63
     7
421
 16777215
 74
     1
 91
        0
 64
     7
 65
   257
 75
     1
175
     1
 42
1.0
 92
        8
 66
     8
424
  7895160
 43
1.0
 76
     1
 77
     6
 78
     2
 67
     7
 79
     5
170
     0
171
     0
290
     0
174
     0
 93
       13
 44
0.0
173
     0
291
     0
 45
0.0
1001
ACAD
1000
AcDbSavedByObjectVersion
1070
     0
  0
VISUALSTYLE
  5
37
102
{ACAD_REACTORS
330
2A
102
}
330
2A
100
AcDbVisualStyle
  2
Thicken
 70
    13
 71
     2
 72
     2
 73
     0
 90
        0
 40
-0.6
 41
-30.0
 62
     5
 63
     7
421
 16777215
 74
     1
 91
        4
 64
     7
 65
   257
 75
     1
175
     1
 42
1.0
 92
       12
 66
     7
 43
1.0
 76
     1
 77
     6
 78
     2
 67
     7
 79
     5
170
     0
171
     0
290
     0
174
     0
 93
        1
 44
0.0
173
     0
291
     1
 45
0.0
1001
ACAD
1000
AcDbSavedByObjectVersion
1070
     0
  0
DICTIONARYVAR
  5
D5
102
{ACAD_REACTORS
330
D4
102
}
330
D4
100
DictionaryVariables
280
     0
  1
1:1
  0
DICTIONARY
  5
D6
330
49
100
AcDbDictionary
280
     1
281
     1
  3
ACAD_ROUNDTRIP_2008_TABLESTYLE_CELLSTYLEMAP
360
D8
  3
ACAD_XREC_ROUNDTRIP
360
D7
  0
CELLSTYLEMAP
  5
D8
102
{ACAD_REACTORS
330
D6
102
}
330
D6
100
AcDbCellStyleMap
 90
        3
300
CELLSTYLE
  1
TABLEFORMAT_BEGIN
 90
        5
170
     1
 91
        0
 92
        0
 62
   257
 93
        1
300
CONTENTFORMAT
  1
CONTENTFORMAT_BEGIN
 90
        0
 91
        0
 92
        4
 93
        0
300

 40
0.0
140
1.0
 94
        5
 62
     0
340
11
144
3.0
309
CONTENTFORMAT_END
171
     0
 94
        6
 95
        1
302
GRIDFORMAT
  1
GRIDFORMAT_BEGIN
 90
        0
 91
        1
 62
     0
 92
       -2
340
0
 93
        0
 40
0.045
309
GRIDFORMAT_END
 95
        2
302
GRIDFORMAT
  1
GRIDFORMAT_BEGIN
 90
        0
 91
        1
 62
     0
 92
       -2
340
0
 93
        0
 40
0.045
309
GRIDFORMAT_END
 95
        4
302
GRIDFORMAT
  1
GRIDFORMAT_BEGIN
 90
        0
 91
        1
 62
     0
 92
       -2
340
0
 93
        0
 40
0.045
309
GRIDFORMAT_END
 95
        8
302
GRIDFORMAT
  1
GRIDFORMAT_BEGIN
 90
        0
 91
        1
 62
     0
 92
       -2
340
0
 93
        0
 40
0.045
309
GRIDFORMAT_END
 95
       16
302
GRIDFORMAT
  1
GRIDFORMAT_BEGIN
 90
        0
 91
        1
 62
     0
 92
       -2
340
0
 93
        0
 40
0.045
309
GRIDFORMAT_END
 95
       32
302
GRIDFORMAT
  1
GRIDFORMAT_BEGIN
 90
        0
 91
        1
 62
     0
 92
       -2
340
0
 93
        0
 40
0.045
309
GRIDFORMAT_END
309
TABLEFORMAT_END
  1
CELLSTYLE_BEGIN
 90
        1
 91
        1
300
_TITLE
309
CELLSTYLE_END
300
CELLSTYLE
  1
TABLEFORMAT_BEGIN
 90
        5
170
     1
 91
        0
 92
        0
 62
   257
 93
        1
300
CONTENTFORMAT
  1
CONTENTFORMAT_BEGIN
 90
        0
 91
        0
 92
        4
 93
        0
300

 40
0.0
140
1.0
 94
        5
 62
     0
340
11
144
3.0
309
CONTENTFORMAT_END
171
     0
 94
        6
 95
        1
302
GRIDFORMAT
  1
GRIDFORMAT_BEGIN
 90
        0
 91
        1
 62
     0
 92
       -2
340
0
 93
        0
 40
0.045
309
GRIDFORMAT_END
 95
        2
302
GRIDFORMAT
  1
GRIDFORMAT_BEGIN
 90
        0
 91
        1
 62
     0
 92
       -2
340
0
 93
        0
 40
0.045
309
GRIDFORMAT_END
 95
        4
302
GRIDFORMAT
  1
GRIDFORMAT_BEGIN
 90
        0
 91
        1
 62
     0
 92
       -2
340
0
 93
        0
 40
0.045
309
GRIDFORMAT_END
 95
        8
302
GRIDFORMAT
  1
GRIDFORMAT_BEGIN
 90
        0
 91
        1
 62
     0
 92
       -2
340
0
 93
        0
 40
0.045
309
GRIDFORMAT_END
 95
       16
302
GRIDFORMAT
  1
GRIDFORMAT_BEGIN
 90
        0
 91
        1
 62
     0
 92
       -2
340
0
 93
        0
 40
0.045
309
GRIDFORMAT_END
 95
       32
302
GRIDFORMAT
  1
GRIDFORMAT_BEGIN
 90
        0
 91
        1
 62
     0
 92
       -2
340
0
 93
        0
 40
0.045
309
GRIDFORMAT_END
309
TABLEFORMAT_END
  1
CELLSTYLE_BEGIN
 90
        2
 91
        1
300
_HEADER
309
CELLSTYLE_END
300
CELLSTYLE
  1
TABLEFORMAT_BEGIN
 90
        5
170
     1
 91
        0
 92
        0
 62
   257
 93
        1
300
CONTENTFORMAT
  1
CONTENTFORMAT_BEGIN
 90
        0
 91
        0
 92
        4
 93
        0
300

 40
0.0
140
1.0
 94
        5
 62
     0
340
11
144
3.0
309
CONTENTFORMAT_END
171
     0
 94
        6
 95
        1
302
GRIDFORMAT
  1
GRIDFORMAT_BEGIN
 90
        0
 91
        1
 62
     0
 92
       -2
340
0
 93
        0
 40
0.045
309
GRIDFORMAT_END
 95
        2
302
GRIDFORMAT
  1
GRIDFORMAT_BEGIN
 90
        0
 91
        1
 62
     0
 92
       -2
340
0
 93
        0
 40
0.045
309
GRIDFORMAT_END
 95
        4
302
GRIDFORMAT
  1
GRIDFORMAT_BEGIN
 90
        0
 91
        1
 62
     0
 92
       -2
340
0
 93
        0
 40
0.045
309
GRIDFORMAT_END
 95
        8
302
GRIDFORMAT
  1
GRIDFORMAT_BEGIN
 90
        0
 91
        1
 62
     0
 92
       -2
340
0
 93
        0
 40
0.045
309
GRIDFORMAT_END
 95
       16
302
GRIDFORMAT
  1
GRIDFORMAT_BEGIN
 90
        0
 91
        1
 62
     0
 92
       -2
340
0
 93
        0
 40
0.045
309
GRIDFORMAT_END
 95
       32
302
GRIDFORMAT
  1
GRIDFORMAT_BEGIN
 90
        0
 91
        1
 62
     0
 92
       -2
340
0
 93
        0
 40
0.045
309
GRIDFORMAT_END
309
TABLEFORMAT_END
  1
CELLSTYLE_BEGIN
 90
        3
 91
        2
300
_DATA
309
CELLSTYLE_END
  0
XRECORD
  5
D7
102
{ACAD_REACTORS
330
D6
102
}
330
D6
100
AcDbXrecord
280
     1
102
ACAD_ROUNDTRIP_PRE2007_TABLESTYLE
 90
        4
 91
        0
  1

 92
        4
 93
        0
  2

 94
        4
 95
        0
  3

  0
ENDSEC
  0
EOF
